%TF.GenerationSoftware,KiCad,Pcbnew,10.0.1*%
%TF.CreationDate,2026-05-13T16:16:34+02:00*%
%TF.ProjectId,BiStage_Avio,42695374-6167-4655-9f41-76696f2e6b69,rev?*%
%TF.SameCoordinates,Original*%
%TF.FileFunction,Copper,L2,Bot*%
%TF.FilePolarity,Positive*%
%FSLAX46Y46*%
G04 Gerber Fmt 4.6, Leading zero omitted, Abs format (unit mm)*
G04 Created by KiCad (PCBNEW 10.0.1) date 2026-05-13 16:16:34*
%MOMM*%
%LPD*%
G01*
G04 APERTURE LIST*
G04 Aperture macros list*
%AMRoundRect*
0 Rectangle with rounded corners*
0 $1 Rounding radius*
0 $2 $3 $4 $5 $6 $7 $8 $9 X,Y pos of 4 corners*
0 Add a 4 corners polygon primitive as box body*
4,1,4,$2,$3,$4,$5,$6,$7,$8,$9,$2,$3,0*
0 Add four circle primitives for the rounded corners*
1,1,$1+$1,$2,$3*
1,1,$1+$1,$4,$5*
1,1,$1+$1,$6,$7*
1,1,$1+$1,$8,$9*
0 Add four rect primitives between the rounded corners*
20,1,$1+$1,$2,$3,$4,$5,0*
20,1,$1+$1,$4,$5,$6,$7,0*
20,1,$1+$1,$6,$7,$8,$9,0*
20,1,$1+$1,$8,$9,$2,$3,0*%
G04 Aperture macros list end*
%TA.AperFunction,ComponentPad*%
%ADD10R,1.700000X1.700000*%
%TD*%
%TA.AperFunction,ComponentPad*%
%ADD11C,1.700000*%
%TD*%
%TA.AperFunction,ComponentPad*%
%ADD12C,2.600000*%
%TD*%
%TA.AperFunction,ConnectorPad*%
%ADD13C,3.800000*%
%TD*%
%TA.AperFunction,ComponentPad*%
%ADD14R,2.800000X2.800000*%
%TD*%
%TA.AperFunction,ComponentPad*%
%ADD15RoundRect,0.250000X-0.625000X0.350000X-0.625000X-0.350000X0.625000X-0.350000X0.625000X0.350000X0*%
%TD*%
%TA.AperFunction,ComponentPad*%
%ADD16O,1.750000X1.200000*%
%TD*%
%TA.AperFunction,ComponentPad*%
%ADD17R,2.000000X1.905000*%
%TD*%
%TA.AperFunction,ComponentPad*%
%ADD18O,2.000000X1.905000*%
%TD*%
%TA.AperFunction,ViaPad*%
%ADD19C,0.800000*%
%TD*%
%TA.AperFunction,Conductor*%
%ADD20C,0.500000*%
%TD*%
G04 APERTURE END LIST*
D10*
%TO.P,SW1,1,A_1*%
%TO.N,unconnected-(SW1-A-Pad1)*%
X155000000Y-82000000D03*
D11*
%TO.P,SW1,2,B_2*%
%TO.N,+5V*%
X155000000Y-84540000D03*
%TO.P,SW1,3,C_3*%
%TO.N,Net-(J5-Pin_1)*%
X155000000Y-87080000D03*
%TD*%
D12*
%TO.P,M2,1*%
%TO.N,N/C*%
X156500000Y-141500000D03*
D13*
X156500000Y-141500000D03*
%TD*%
D12*
%TO.P,M2,1*%
%TO.N,N/C*%
X123000000Y-141500000D03*
D13*
X123000000Y-141500000D03*
%TD*%
D12*
%TO.P,M2,1*%
%TO.N,N/C*%
X156500000Y-66500000D03*
D13*
X156500000Y-66500000D03*
%TD*%
D14*
%TO.P,J5,1,Pin_1_1*%
%TO.N,Net-(J5-Pin_1)*%
X132387500Y-142912500D03*
%TO.P,J5,2,Pin_2_2*%
%TO.N,GND*%
X146587500Y-142912500D03*
%TO.P,J5,3,Pin_3_3*%
%TO.N,Net-(J5-Pin_1)*%
X132387500Y-120012500D03*
%TO.P,J5,4,Pin_4_4*%
%TO.N,GND*%
X146887500Y-120012500D03*
%TO.P,J5,5,Pin_5_5*%
%TO.N,+BATT*%
X135887500Y-120012500D03*
%TO.P,J5,6,Pin_6_6*%
%TO.N,-BATT*%
X143487500Y-120012500D03*
%TD*%
D12*
%TO.P,M2,1*%
%TO.N,N/C*%
X123000000Y-66500000D03*
D13*
X123000000Y-66500000D03*
%TD*%
D15*
%TO.P,J4,1,-_1*%
%TO.N,+5V*%
X124950000Y-124000000D03*
D16*
%TO.P,J4,2,+_2*%
%TO.N,MOTOR_PIN*%
X124950000Y-126000000D03*
%TD*%
D10*
%TO.P,J1,1,Pin_1_1*%
%TO.N,+5V*%
X156000000Y-102960000D03*
D11*
%TO.P,J1,2,Pin_2_2*%
%TO.N,GND*%
X156000000Y-105500000D03*
%TO.P,J1,3,Pin_3_3*%
%TO.N,BM180_SCL*%
X156000000Y-108040000D03*
%TO.P,J1,4,Pin_4_4*%
%TO.N,BM180_SDA*%
X156000000Y-110580000D03*
%TD*%
D17*
%TO.P,Q1,1,G_1*%
%TO.N,MOTOR_CTRL*%
X124000000Y-113580000D03*
D18*
%TO.P,Q1,2,D_2*%
%TO.N,MOTOR_PIN*%
X124000000Y-111040000D03*
%TO.P,Q1,3,S_3*%
%TO.N,GND*%
X124000000Y-108500000D03*
%TD*%
D10*
%TO.P,J2,1,Pin_1_1*%
%TO.N,+3.3V*%
X123400000Y-80000000D03*
D11*
%TO.P,J2,2,Pin_2_2*%
%TO.N,SD_CS*%
X123400000Y-82540000D03*
%TO.P,J2,3,Pin_3_3*%
%TO.N,SD_MOSI*%
X123400000Y-85080000D03*
%TO.P,J2,4,Pin_4_4*%
%TO.N,SD_CLK*%
X123400000Y-87620000D03*
%TO.P,J2,5,Pin_5_5*%
%TO.N,SD_MISO*%
X123400000Y-90160000D03*
%TO.P,J2,6,Pin_6_6*%
%TO.N,GND*%
X123400000Y-92700000D03*
%TD*%
D15*
%TO.P,J3,1,-_1*%
%TO.N,-BATT*%
X152450000Y-124000000D03*
D16*
%TO.P,J3,2,+_2*%
%TO.N,+BATT*%
X152450000Y-126000000D03*
%TD*%
D19*
%TO.N,BM180_SDA*%
X137500000Y-102500000D03*
X126500000Y-65000000D03*
X143500000Y-109500000D03*
%TO.N,+3.3V*%
X133500000Y-77000000D03*
%TO.N,SD_MISO*%
X126500000Y-78500000D03*
X126500000Y-81500000D03*
%TO.N,BM180_SCL*%
X143500000Y-106000000D03*
X126500000Y-67500000D03*
X136500000Y-95000000D03*
%TO.N,+5V*%
X146000000Y-69000000D03*
X146000000Y-77000000D03*
X146000000Y-102960000D03*
%TD*%
%TO.N,BM180_SDA*%
D20*
X137500000Y-102500000D02*
X137500000Y-76000000D01*
X137500000Y-76000000D02*
X126500000Y-65000000D01*
X155150000Y-111430000D02*
X156000000Y-110580000D01*
X143500000Y-109500000D02*
X145430000Y-111430000D01*
X145430000Y-111430000D02*
X155150000Y-111430000D01*
%TO.N,+3.3V*%
X126400000Y-77000000D02*
X133500000Y-77000000D01*
X123400000Y-80000000D02*
X126400000Y-77000000D01*
%TO.N,SD_MISO*%
X126500000Y-81500000D02*
X126500000Y-78500000D01*
%TO.N,BM180_SCL*%
X143500000Y-106000000D02*
X147500000Y-110000000D01*
X154040000Y-110000000D02*
X156000000Y-108040000D01*
X136500000Y-95000000D02*
X136500000Y-77500000D01*
X136500000Y-77500000D02*
X126500000Y-67500000D01*
X147500000Y-110000000D02*
X154040000Y-110000000D01*
%TO.N,+5V*%
X146000000Y-77000000D02*
X146000000Y-69000000D01*
X146000000Y-102960000D02*
X156000000Y-102960000D01*
%TO.N,-BATT*%
X145575000Y-124000000D02*
X143487500Y-121912500D01*
X143487500Y-121912500D02*
X143487500Y-120012500D01*
X152450000Y-124000000D02*
X145575000Y-124000000D01*
%TO.N,+BATT*%
X141875000Y-126000000D02*
X135887500Y-120012500D01*
X152450000Y-126000000D02*
X141875000Y-126000000D01*
%TO.N,Net-(J5-Pin_1)*%
X138500000Y-106000000D02*
X155000000Y-89500000D01*
X132387500Y-120012500D02*
X132387500Y-117305000D01*
X132387500Y-117305000D02*
X138500000Y-111192500D01*
X155000000Y-89500000D02*
X155000000Y-87080000D01*
X138500000Y-111192500D02*
X138500000Y-106000000D01*
%TD*%
%TA.AperFunction,Conductor*%
%TO.N,GND*%
G36*
X136636736Y-63520185D02*
G01*
X136682491Y-63572989D01*
X136692435Y-63642147D01*
X136663410Y-63705703D01*
X136625992Y-63734985D01*
X136567179Y-63764951D01*
X136395213Y-63889890D01*
X136244890Y-64040213D01*
X136119951Y-64212179D01*
X136023444Y-64401585D01*
X135957753Y-64603760D01*
X135929849Y-64779941D01*
X135924500Y-64813713D01*
X135924500Y-65026287D01*
X135957754Y-65236243D01*
X135996616Y-65355848D01*
X136023444Y-65438414D01*
X136119951Y-65627820D01*
X136244890Y-65799786D01*
X136395213Y-65950109D01*
X136567179Y-66075048D01*
X136567181Y-66075049D01*
X136567184Y-66075051D01*
X136756588Y-66171557D01*
X136958757Y-66237246D01*
X137168713Y-66270500D01*
X137168714Y-66270500D01*
X137381286Y-66270500D01*
X137381287Y-66270500D01*
X137591243Y-66237246D01*
X137793412Y-66171557D01*
X137982816Y-66075051D01*
X138004789Y-66059086D01*
X138154786Y-65950109D01*
X138154788Y-65950106D01*
X138154792Y-65950104D01*
X138305104Y-65799792D01*
X138305106Y-65799788D01*
X138305109Y-65799786D01*
X138430048Y-65627820D01*
X138430047Y-65627820D01*
X138430051Y-65627816D01*
X138526557Y-65438412D01*
X138592246Y-65236243D01*
X138625500Y-65026287D01*
X138625500Y-64813713D01*
X138592246Y-64603757D01*
X138526557Y-64401588D01*
X138430051Y-64212184D01*
X138430049Y-64212181D01*
X138430048Y-64212179D01*
X138305109Y-64040213D01*
X138154786Y-63889890D01*
X137982820Y-63764951D01*
X137924008Y-63734985D01*
X137873212Y-63687010D01*
X137856417Y-63619190D01*
X137878954Y-63553055D01*
X137933669Y-63509603D01*
X137980303Y-63500500D01*
X142019697Y-63500500D01*
X142086736Y-63520185D01*
X142132491Y-63572989D01*
X142142435Y-63642147D01*
X142113410Y-63705703D01*
X142075992Y-63734985D01*
X142017179Y-63764951D01*
X141845213Y-63889890D01*
X141694890Y-64040213D01*
X141569951Y-64212179D01*
X141473444Y-64401585D01*
X141407753Y-64603760D01*
X141379849Y-64779941D01*
X141374500Y-64813713D01*
X141374500Y-65026287D01*
X141407754Y-65236243D01*
X141446616Y-65355848D01*
X141473444Y-65438414D01*
X141569951Y-65627820D01*
X141694890Y-65799786D01*
X141845213Y-65950109D01*
X142017179Y-66075048D01*
X142017181Y-66075049D01*
X142017184Y-66075051D01*
X142206588Y-66171557D01*
X142408757Y-66237246D01*
X142618713Y-66270500D01*
X142618714Y-66270500D01*
X142831286Y-66270500D01*
X142831287Y-66270500D01*
X143041243Y-66237246D01*
X143243412Y-66171557D01*
X143432816Y-66075051D01*
X143454789Y-66059086D01*
X143604786Y-65950109D01*
X143604788Y-65950106D01*
X143604792Y-65950104D01*
X143755104Y-65799792D01*
X143755106Y-65799788D01*
X143755109Y-65799786D01*
X143880048Y-65627820D01*
X143880047Y-65627820D01*
X143880051Y-65627816D01*
X143976557Y-65438412D01*
X144042246Y-65236243D01*
X144075500Y-65026287D01*
X144075500Y-64813713D01*
X144042246Y-64603757D01*
X143976557Y-64401588D01*
X143880051Y-64212184D01*
X143880049Y-64212181D01*
X143880048Y-64212179D01*
X143755109Y-64040213D01*
X143604786Y-63889890D01*
X143432820Y-63764951D01*
X143374008Y-63734985D01*
X143323212Y-63687010D01*
X143306417Y-63619190D01*
X143328954Y-63553055D01*
X143383669Y-63509603D01*
X143430303Y-63500500D01*
X155434108Y-63500500D01*
X155496949Y-63500500D01*
X155503032Y-63500648D01*
X155836929Y-63517052D01*
X155849037Y-63518245D01*
X155862116Y-63520185D01*
X156176699Y-63566849D01*
X156188617Y-63569219D01*
X156509951Y-63649709D01*
X156521588Y-63653240D01*
X156564078Y-63668443D01*
X156833467Y-63764832D01*
X156844688Y-63769479D01*
X157144163Y-63911120D01*
X157154871Y-63916844D01*
X157214945Y-63952851D01*
X157262327Y-64004200D01*
X157274425Y-64073014D01*
X157247399Y-64137446D01*
X157189829Y-64177037D01*
X157123604Y-64180100D01*
X156902735Y-64129688D01*
X156902719Y-64129686D01*
X156634813Y-64099500D01*
X156634809Y-64099500D01*
X156365191Y-64099500D01*
X156365186Y-64099500D01*
X156097280Y-64129686D01*
X156097268Y-64129688D01*
X155834405Y-64189684D01*
X155834397Y-64189687D01*
X155579917Y-64278734D01*
X155337005Y-64395714D01*
X155108712Y-64539161D01*
X154897915Y-64707265D01*
X154707265Y-64897915D01*
X154539161Y-65108712D01*
X154395714Y-65337005D01*
X154278734Y-65579917D01*
X154189687Y-65834397D01*
X154189684Y-65834405D01*
X154129688Y-66097268D01*
X154129686Y-66097280D01*
X154099500Y-66365186D01*
X154099500Y-66634813D01*
X154129686Y-66902719D01*
X154129687Y-66902728D01*
X154129688Y-66902732D01*
X154139249Y-66944622D01*
X154189684Y-67165594D01*
X154189687Y-67165602D01*
X154278734Y-67420082D01*
X154395714Y-67662994D01*
X154395716Y-67662997D01*
X154539162Y-67891289D01*
X154578243Y-67940295D01*
X154705204Y-68099500D01*
X154707266Y-68102085D01*
X154897915Y-68292734D01*
X155108711Y-68460838D01*
X155337003Y-68604284D01*
X155579921Y-68721267D01*
X155771049Y-68788145D01*
X155834397Y-68810312D01*
X155834405Y-68810315D01*
X155834408Y-68810315D01*
X155834409Y-68810316D01*
X156097268Y-68870312D01*
X156365187Y-68900499D01*
X156365188Y-68900500D01*
X156365191Y-68900500D01*
X156634812Y-68900500D01*
X156634812Y-68900499D01*
X156902732Y-68870312D01*
X157165591Y-68810316D01*
X157420079Y-68721267D01*
X157662997Y-68604284D01*
X157891289Y-68460838D01*
X158102085Y-68292734D01*
X158292734Y-68102085D01*
X158460838Y-67891289D01*
X158604284Y-67662997D01*
X158721267Y-67420079D01*
X158758460Y-67313787D01*
X158799180Y-67257014D01*
X158864133Y-67231267D01*
X158932695Y-67244723D01*
X158983097Y-67293111D01*
X158999500Y-67354745D01*
X158999500Y-140645254D01*
X158979815Y-140712293D01*
X158927011Y-140758048D01*
X158857853Y-140767992D01*
X158794297Y-140738967D01*
X158758459Y-140686209D01*
X158744128Y-140645254D01*
X158721267Y-140579921D01*
X158604284Y-140337003D01*
X158460838Y-140108711D01*
X158292734Y-139897915D01*
X158102085Y-139707266D01*
X157891289Y-139539162D01*
X157662997Y-139395716D01*
X157662994Y-139395714D01*
X157420082Y-139278734D01*
X157165602Y-139189687D01*
X157165594Y-139189684D01*
X156968446Y-139144687D01*
X156902732Y-139129688D01*
X156902728Y-139129687D01*
X156902719Y-139129686D01*
X156634813Y-139099500D01*
X156634809Y-139099500D01*
X156365191Y-139099500D01*
X156365186Y-139099500D01*
X156097280Y-139129686D01*
X156097268Y-139129688D01*
X155834405Y-139189684D01*
X155834397Y-139189687D01*
X155579917Y-139278734D01*
X155337005Y-139395714D01*
X155108712Y-139539161D01*
X154897915Y-139707265D01*
X154707265Y-139897915D01*
X154539161Y-140108712D01*
X154395714Y-140337005D01*
X154278734Y-140579917D01*
X154189687Y-140834397D01*
X154189684Y-140834405D01*
X154129688Y-141097268D01*
X154129686Y-141097280D01*
X154099500Y-141365186D01*
X154099500Y-141634813D01*
X154129686Y-141902719D01*
X154129688Y-141902731D01*
X154189684Y-142165594D01*
X154189687Y-142165602D01*
X154278734Y-142420082D01*
X154395714Y-142662994D01*
X154395716Y-142662997D01*
X154539162Y-142891289D01*
X154616556Y-142988338D01*
X154689717Y-143080080D01*
X154707266Y-143102085D01*
X154897915Y-143292734D01*
X155108711Y-143460838D01*
X155337003Y-143604284D01*
X155579921Y-143721267D01*
X155771049Y-143788145D01*
X155834397Y-143810312D01*
X155834405Y-143810315D01*
X155834408Y-143810315D01*
X155834409Y-143810316D01*
X156097268Y-143870312D01*
X156365187Y-143900499D01*
X156365188Y-143900500D01*
X156365191Y-143900500D01*
X156634812Y-143900500D01*
X156634812Y-143900499D01*
X156902732Y-143870312D01*
X157123604Y-143819899D01*
X157139577Y-143820877D01*
X157155068Y-143816850D01*
X157173735Y-143822970D01*
X157193342Y-143824172D01*
X157206252Y-143833632D01*
X157221460Y-143838619D01*
X157233854Y-143853859D01*
X157249700Y-143865471D01*
X157255445Y-143880408D01*
X157265544Y-143892826D01*
X157267731Y-143912349D01*
X157274783Y-143930683D01*
X157271541Y-143946354D01*
X157273323Y-143962261D01*
X157264608Y-143979865D01*
X157260629Y-143999104D01*
X157249067Y-144011262D01*
X157242327Y-144024880D01*
X157214945Y-144047148D01*
X157154883Y-144083148D01*
X157144151Y-144088885D01*
X156844702Y-144230514D01*
X156833459Y-144235170D01*
X156521588Y-144346759D01*
X156509944Y-144350292D01*
X156188630Y-144430777D01*
X156176694Y-144433151D01*
X155849037Y-144481754D01*
X155836928Y-144482947D01*
X155521989Y-144498419D01*
X155503031Y-144499351D01*
X155496949Y-144499500D01*
X148610584Y-144499500D01*
X148543545Y-144479815D01*
X148497790Y-144427011D01*
X148487523Y-144363663D01*
X148487322Y-144363653D01*
X148487371Y-144362725D01*
X148487294Y-144362247D01*
X148487499Y-144360333D01*
X148487500Y-144360327D01*
X148487500Y-143162500D01*
X147317389Y-143162500D01*
X147327910Y-143137101D01*
X147357500Y-142988338D01*
X147357500Y-142836662D01*
X147327910Y-142687899D01*
X147317389Y-142662500D01*
X148487500Y-142662500D01*
X148487500Y-141464672D01*
X148487499Y-141464655D01*
X148481098Y-141405127D01*
X148481096Y-141405120D01*
X148430854Y-141270413D01*
X148430850Y-141270406D01*
X148344690Y-141155312D01*
X148344687Y-141155309D01*
X148229593Y-141069149D01*
X148229586Y-141069145D01*
X148094879Y-141018903D01*
X148094872Y-141018901D01*
X148035344Y-141012500D01*
X146837500Y-141012500D01*
X146837500Y-142182610D01*
X146812101Y-142172090D01*
X146663338Y-142142500D01*
X146511662Y-142142500D01*
X146362899Y-142172090D01*
X146337500Y-142182610D01*
X146337500Y-141012500D01*
X145139655Y-141012500D01*
X145080127Y-141018901D01*
X145080120Y-141018903D01*
X144945413Y-141069145D01*
X144945406Y-141069149D01*
X144830312Y-141155309D01*
X144830309Y-141155312D01*
X144744149Y-141270406D01*
X144744145Y-141270413D01*
X144693903Y-141405120D01*
X144693901Y-141405127D01*
X144687500Y-141464655D01*
X144687500Y-142662500D01*
X145857611Y-142662500D01*
X145847090Y-142687899D01*
X145817500Y-142836662D01*
X145817500Y-142988338D01*
X145847090Y-143137101D01*
X145857611Y-143162500D01*
X144687500Y-143162500D01*
X144687500Y-144360333D01*
X144687706Y-144362247D01*
X144687626Y-144362688D01*
X144687678Y-144363653D01*
X144687450Y-144363665D01*
X144675299Y-144431007D01*
X144627687Y-144482143D01*
X144564416Y-144499500D01*
X134411088Y-144499500D01*
X134344049Y-144479815D01*
X134298294Y-144427011D01*
X134288032Y-144363694D01*
X134288000Y-144363694D01*
X134287999Y-144363690D01*
X134287822Y-144363681D01*
X134287873Y-144362716D01*
X134287798Y-144362249D01*
X134288000Y-144360373D01*
X134287999Y-141464628D01*
X134281591Y-141405017D01*
X134260712Y-141349038D01*
X134231297Y-141270171D01*
X134231293Y-141270164D01*
X134145047Y-141154955D01*
X134145044Y-141154952D01*
X134029835Y-141068706D01*
X134029828Y-141068702D01*
X133894982Y-141018408D01*
X133894983Y-141018408D01*
X133835383Y-141012001D01*
X133835381Y-141012000D01*
X133835373Y-141012000D01*
X133835364Y-141012000D01*
X130939629Y-141012000D01*
X130939623Y-141012001D01*
X130880016Y-141018408D01*
X130745171Y-141068702D01*
X130745164Y-141068706D01*
X130629955Y-141154952D01*
X130629952Y-141154955D01*
X130543706Y-141270164D01*
X130543702Y-141270171D01*
X130493408Y-141405017D01*
X130487001Y-141464616D01*
X130487001Y-141464623D01*
X130487000Y-141464635D01*
X130487000Y-144360370D01*
X130487001Y-144360380D01*
X130487203Y-144362256D01*
X130487125Y-144362687D01*
X130487179Y-144363696D01*
X130486940Y-144363708D01*
X130474791Y-144431015D01*
X130427176Y-144482148D01*
X130363912Y-144499500D01*
X123503051Y-144499500D01*
X123496968Y-144499351D01*
X123476900Y-144498365D01*
X123163071Y-144482947D01*
X123150962Y-144481754D01*
X122823305Y-144433151D01*
X122811369Y-144430777D01*
X122490055Y-144350292D01*
X122478411Y-144346759D01*
X122166540Y-144235170D01*
X122155301Y-144230515D01*
X121855844Y-144088883D01*
X121845121Y-144083150D01*
X121616889Y-143946354D01*
X121561011Y-143912862D01*
X121550893Y-143906102D01*
X121284829Y-143708775D01*
X121275423Y-143701055D01*
X121222303Y-143652910D01*
X121029986Y-143478604D01*
X121021395Y-143470013D01*
X120798944Y-143224576D01*
X120791224Y-143215170D01*
X120707354Y-143102085D01*
X120593895Y-142949103D01*
X120587137Y-142938988D01*
X120416844Y-142654871D01*
X120411120Y-142644163D01*
X120269479Y-142344688D01*
X120264829Y-142333459D01*
X120258010Y-142314402D01*
X120153240Y-142021588D01*
X120149707Y-142009944D01*
X120122849Y-141902719D01*
X120069219Y-141688617D01*
X120066848Y-141676694D01*
X120060635Y-141634811D01*
X120020640Y-141365186D01*
X120599500Y-141365186D01*
X120599500Y-141634813D01*
X120629686Y-141902719D01*
X120629688Y-141902731D01*
X120689684Y-142165594D01*
X120689687Y-142165602D01*
X120778734Y-142420082D01*
X120895714Y-142662994D01*
X120895716Y-142662997D01*
X121039162Y-142891289D01*
X121116556Y-142988338D01*
X121189717Y-143080080D01*
X121207266Y-143102085D01*
X121397915Y-143292734D01*
X121608711Y-143460838D01*
X121837003Y-143604284D01*
X122079921Y-143721267D01*
X122271049Y-143788145D01*
X122334397Y-143810312D01*
X122334405Y-143810315D01*
X122334408Y-143810315D01*
X122334409Y-143810316D01*
X122597268Y-143870312D01*
X122865187Y-143900499D01*
X122865188Y-143900500D01*
X122865191Y-143900500D01*
X123134812Y-143900500D01*
X123134812Y-143900499D01*
X123402732Y-143870312D01*
X123665591Y-143810316D01*
X123920079Y-143721267D01*
X124162997Y-143604284D01*
X124391289Y-143460838D01*
X124602085Y-143292734D01*
X124792734Y-143102085D01*
X124960838Y-142891289D01*
X125104284Y-142662997D01*
X125221267Y-142420079D01*
X125310316Y-142165591D01*
X125370312Y-141902732D01*
X125400500Y-141634809D01*
X125400500Y-141365191D01*
X125370312Y-141097268D01*
X125310316Y-140834409D01*
X125221267Y-140579921D01*
X125104284Y-140337003D01*
X124960838Y-140108711D01*
X124792734Y-139897915D01*
X124602085Y-139707266D01*
X124391289Y-139539162D01*
X124162997Y-139395716D01*
X124162994Y-139395714D01*
X123920082Y-139278734D01*
X123665602Y-139189687D01*
X123665594Y-139189684D01*
X123468446Y-139144687D01*
X123402732Y-139129688D01*
X123402728Y-139129687D01*
X123402719Y-139129686D01*
X123134813Y-139099500D01*
X123134809Y-139099500D01*
X122865191Y-139099500D01*
X122865186Y-139099500D01*
X122597280Y-139129686D01*
X122597268Y-139129688D01*
X122334405Y-139189684D01*
X122334397Y-139189687D01*
X122079917Y-139278734D01*
X121837005Y-139395714D01*
X121608712Y-139539161D01*
X121397915Y-139707265D01*
X121207265Y-139897915D01*
X121039161Y-140108712D01*
X120895714Y-140337005D01*
X120778734Y-140579917D01*
X120689687Y-140834397D01*
X120689684Y-140834405D01*
X120629688Y-141097268D01*
X120629686Y-141097280D01*
X120599500Y-141365186D01*
X120020640Y-141365186D01*
X120018244Y-141349037D01*
X120017052Y-141336927D01*
X120013772Y-141270169D01*
X120000649Y-141003032D01*
X120000500Y-140996948D01*
X120000500Y-123599983D01*
X123574500Y-123599983D01*
X123574500Y-124400001D01*
X123574501Y-124400019D01*
X123585000Y-124502796D01*
X123585001Y-124502799D01*
X123640185Y-124669331D01*
X123640187Y-124669336D01*
X123672460Y-124721659D01*
X123732288Y-124818656D01*
X123856344Y-124942712D01*
X123920543Y-124982310D01*
X123967268Y-125034258D01*
X123978489Y-125103221D01*
X123950646Y-125167303D01*
X123943128Y-125175530D01*
X123835585Y-125283073D01*
X123733768Y-125423211D01*
X123655128Y-125577552D01*
X123601597Y-125742302D01*
X123574500Y-125913389D01*
X123574500Y-126086611D01*
X123601598Y-126257701D01*
X123655127Y-126422445D01*
X123733768Y-126576788D01*
X123835586Y-126716928D01*
X123958072Y-126839414D01*
X124098212Y-126941232D01*
X124252555Y-127019873D01*
X124417299Y-127073402D01*
X124588389Y-127100500D01*
X124588390Y-127100500D01*
X125311610Y-127100500D01*
X125311611Y-127100500D01*
X125482701Y-127073402D01*
X125647445Y-127019873D01*
X125801788Y-126941232D01*
X125941928Y-126839414D01*
X126064414Y-126716928D01*
X126166232Y-126576788D01*
X126244873Y-126422445D01*
X126298402Y-126257701D01*
X126325500Y-126086611D01*
X126325500Y-125913389D01*
X126298402Y-125742299D01*
X126244873Y-125577555D01*
X126166232Y-125423212D01*
X126064414Y-125283072D01*
X125956871Y-125175529D01*
X125923387Y-125114207D01*
X125928371Y-125044515D01*
X125970243Y-124988582D01*
X125979457Y-124982310D01*
X126043656Y-124942712D01*
X126167712Y-124818656D01*
X126259814Y-124669334D01*
X126314999Y-124502797D01*
X126325500Y-124400009D01*
X126325499Y-123599992D01*
X126314999Y-123497203D01*
X126259814Y-123330666D01*
X126167712Y-123181344D01*
X126043656Y-123057288D01*
X125894334Y-122965186D01*
X125727797Y-122910001D01*
X125727795Y-122910000D01*
X125625010Y-122899500D01*
X124274998Y-122899500D01*
X124274981Y-122899501D01*
X124172203Y-122910000D01*
X124172200Y-122910001D01*
X124005668Y-122965185D01*
X124005663Y-122965187D01*
X123856342Y-123057289D01*
X123732289Y-123181342D01*
X123640187Y-123330663D01*
X123640186Y-123330666D01*
X123585001Y-123497203D01*
X123585001Y-123497204D01*
X123585000Y-123497204D01*
X123574500Y-123599983D01*
X120000500Y-123599983D01*
X120000500Y-118564635D01*
X130487000Y-118564635D01*
X130487000Y-121460370D01*
X130487001Y-121460376D01*
X130493408Y-121519983D01*
X130543702Y-121654828D01*
X130543706Y-121654835D01*
X130629952Y-121770044D01*
X130629955Y-121770047D01*
X130745164Y-121856293D01*
X130745171Y-121856297D01*
X130880017Y-121906591D01*
X130880016Y-121906591D01*
X130886944Y-121907335D01*
X130939627Y-121913000D01*
X133835372Y-121912999D01*
X133894983Y-121906591D01*
X133896310Y-121906096D01*
X134029829Y-121856297D01*
X134029829Y-121856296D01*
X134029831Y-121856296D01*
X134063189Y-121831323D01*
X134128651Y-121806906D01*
X134196925Y-121821757D01*
X134211805Y-121831320D01*
X134245169Y-121856296D01*
X134245170Y-121856296D01*
X134245170Y-121856297D01*
X134380017Y-121906591D01*
X134380016Y-121906591D01*
X134386944Y-121907335D01*
X134439627Y-121913000D01*
X136675269Y-121912999D01*
X136742308Y-121932684D01*
X136762950Y-121949318D01*
X141396586Y-126582954D01*
X141419537Y-126598288D01*
X141470270Y-126632186D01*
X141519505Y-126665084D01*
X141555624Y-126680045D01*
X141562177Y-126682759D01*
X141562180Y-126682761D01*
X141599515Y-126698225D01*
X141656088Y-126721659D01*
X141772241Y-126744763D01*
X141791468Y-126748587D01*
X141801081Y-126750500D01*
X141801082Y-126750500D01*
X141801083Y-126750500D01*
X141948918Y-126750500D01*
X151317796Y-126750500D01*
X151384835Y-126770185D01*
X151405477Y-126786819D01*
X151458072Y-126839414D01*
X151598212Y-126941232D01*
X151752555Y-127019873D01*
X151917299Y-127073402D01*
X152088389Y-127100500D01*
X152088390Y-127100500D01*
X152811610Y-127100500D01*
X152811611Y-127100500D01*
X152982701Y-127073402D01*
X153147445Y-127019873D01*
X153301788Y-126941232D01*
X153441928Y-126839414D01*
X153564414Y-126716928D01*
X153666232Y-126576788D01*
X153744873Y-126422445D01*
X153798402Y-126257701D01*
X153825500Y-126086611D01*
X153825500Y-125913389D01*
X153798402Y-125742299D01*
X153744873Y-125577555D01*
X153666232Y-125423212D01*
X153564414Y-125283072D01*
X153456871Y-125175529D01*
X153423387Y-125114207D01*
X153428371Y-125044515D01*
X153470243Y-124988582D01*
X153479457Y-124982310D01*
X153543656Y-124942712D01*
X153667712Y-124818656D01*
X153759814Y-124669334D01*
X153814999Y-124502797D01*
X153825500Y-124400009D01*
X153825499Y-123599992D01*
X153814999Y-123497203D01*
X153759814Y-123330666D01*
X153667712Y-123181344D01*
X153543656Y-123057288D01*
X153394334Y-122965186D01*
X153227797Y-122910001D01*
X153227795Y-122910000D01*
X153125010Y-122899500D01*
X151774998Y-122899500D01*
X151774981Y-122899501D01*
X151672203Y-122910000D01*
X151672200Y-122910001D01*
X151505668Y-122965185D01*
X151505663Y-122965187D01*
X151356342Y-123057289D01*
X151232287Y-123181344D01*
X151226580Y-123190598D01*
X151174632Y-123237322D01*
X151121042Y-123249500D01*
X145937230Y-123249500D01*
X145870191Y-123229815D01*
X145849549Y-123213181D01*
X144761048Y-122124680D01*
X144727563Y-122063357D01*
X144732547Y-121993665D01*
X144774419Y-121937732D01*
X144839883Y-121913315D01*
X144848729Y-121912999D01*
X144935371Y-121912999D01*
X144935372Y-121912999D01*
X144994983Y-121906591D01*
X145129831Y-121856296D01*
X145129833Y-121856294D01*
X145138140Y-121853196D01*
X145138725Y-121854765D01*
X145196867Y-121842116D01*
X145236707Y-121853812D01*
X145237102Y-121852753D01*
X145380123Y-121906097D01*
X145380127Y-121906098D01*
X145439655Y-121912499D01*
X145439672Y-121912500D01*
X146637500Y-121912500D01*
X146637500Y-120742389D01*
X146662899Y-120752910D01*
X146811662Y-120782500D01*
X146963338Y-120782500D01*
X147112101Y-120752910D01*
X147137500Y-120742389D01*
X147137500Y-121912500D01*
X148335328Y-121912500D01*
X148335344Y-121912499D01*
X148394872Y-121906098D01*
X148394879Y-121906096D01*
X148529586Y-121855854D01*
X148529593Y-121855850D01*
X148644687Y-121769690D01*
X148644690Y-121769687D01*
X148730850Y-121654593D01*
X148730854Y-121654586D01*
X148781096Y-121519879D01*
X148781098Y-121519872D01*
X148787499Y-121460344D01*
X148787500Y-121460327D01*
X148787500Y-120262500D01*
X147617389Y-120262500D01*
X147627910Y-120237101D01*
X147657500Y-120088338D01*
X147657500Y-119936662D01*
X147627910Y-119787899D01*
X147617389Y-119762500D01*
X148787500Y-119762500D01*
X148787500Y-118564672D01*
X148787499Y-118564655D01*
X148781098Y-118505127D01*
X148781096Y-118505120D01*
X148730854Y-118370413D01*
X148730850Y-118370406D01*
X148644690Y-118255312D01*
X148644687Y-118255309D01*
X148529593Y-118169149D01*
X148529586Y-118169145D01*
X148394879Y-118118903D01*
X148394872Y-118118901D01*
X148335344Y-118112500D01*
X147137500Y-118112500D01*
X147137500Y-119282610D01*
X147112101Y-119272090D01*
X146963338Y-119242500D01*
X146811662Y-119242500D01*
X146662899Y-119272090D01*
X146637500Y-119282610D01*
X146637500Y-118112500D01*
X145439655Y-118112500D01*
X145380127Y-118118901D01*
X145380120Y-118118903D01*
X145237101Y-118172246D01*
X145236424Y-118170431D01*
X145179174Y-118182883D01*
X145138467Y-118170928D01*
X145138141Y-118171803D01*
X144994982Y-118118408D01*
X144994983Y-118118408D01*
X144935383Y-118112001D01*
X144935381Y-118112000D01*
X144935373Y-118112000D01*
X144935364Y-118112000D01*
X142039629Y-118112000D01*
X142039623Y-118112001D01*
X141980016Y-118118408D01*
X141845171Y-118168702D01*
X141845164Y-118168706D01*
X141729955Y-118254952D01*
X141729952Y-118254955D01*
X141643706Y-118370164D01*
X141643702Y-118370171D01*
X141593408Y-118505017D01*
X141587001Y-118564616D01*
X141587001Y-118564623D01*
X141587000Y-118564635D01*
X141587000Y-121460370D01*
X141587001Y-121460376D01*
X141593408Y-121519983D01*
X141643702Y-121654828D01*
X141643706Y-121654835D01*
X141729952Y-121770044D01*
X141729955Y-121770047D01*
X141845164Y-121856293D01*
X141845171Y-121856297D01*
X141890118Y-121873061D01*
X141980017Y-121906591D01*
X142039627Y-121913000D01*
X142620631Y-121912999D01*
X142687670Y-121932683D01*
X142733425Y-121985487D01*
X142742248Y-122012806D01*
X142765840Y-122131408D01*
X142765843Y-122131417D01*
X142822414Y-122267992D01*
X142855312Y-122317227D01*
X142855313Y-122317230D01*
X142904546Y-122390914D01*
X142904552Y-122390921D01*
X145096584Y-124582952D01*
X145096586Y-124582954D01*
X145126058Y-124602645D01*
X145170270Y-124632186D01*
X145219505Y-124665084D01*
X145219506Y-124665084D01*
X145219507Y-124665085D01*
X145219509Y-124665086D01*
X145356082Y-124721656D01*
X145356087Y-124721658D01*
X145356091Y-124721658D01*
X145356092Y-124721659D01*
X145501079Y-124750500D01*
X145501082Y-124750500D01*
X145501083Y-124750500D01*
X145648918Y-124750500D01*
X151121042Y-124750500D01*
X151188081Y-124770185D01*
X151226580Y-124809402D01*
X151232288Y-124818656D01*
X151356344Y-124942712D01*
X151420543Y-124982310D01*
X151436096Y-124999602D01*
X151454712Y-125013537D01*
X151459020Y-125025089D01*
X151467268Y-125034258D01*
X151471002Y-125057212D01*
X151479130Y-125079001D01*
X151476508Y-125091051D01*
X151478489Y-125103221D01*
X151469222Y-125124548D01*
X151464279Y-125147274D01*
X151452527Y-125162972D01*
X151450646Y-125167303D01*
X151443128Y-125175529D01*
X151405478Y-125213180D01*
X151344156Y-125246666D01*
X151317796Y-125249500D01*
X142237230Y-125249500D01*
X142170191Y-125229815D01*
X142149549Y-125213181D01*
X137824318Y-120887950D01*
X137790833Y-120826627D01*
X137787999Y-120800269D01*
X137787999Y-118564629D01*
X137787998Y-118564623D01*
X137787997Y-118564616D01*
X137781591Y-118505017D01*
X137731384Y-118370406D01*
X137731297Y-118370171D01*
X137731293Y-118370164D01*
X137645047Y-118254955D01*
X137645044Y-118254952D01*
X137529835Y-118168706D01*
X137529828Y-118168702D01*
X137394982Y-118118408D01*
X137394983Y-118118408D01*
X137335383Y-118112001D01*
X137335381Y-118112000D01*
X137335373Y-118112000D01*
X137335364Y-118112000D01*
X134439629Y-118112000D01*
X134439623Y-118112001D01*
X134380016Y-118118408D01*
X134245171Y-118168702D01*
X134245169Y-118168703D01*
X134211810Y-118193676D01*
X134146345Y-118218092D01*
X134078072Y-118203240D01*
X134063190Y-118193676D01*
X134029830Y-118168703D01*
X134029828Y-118168702D01*
X133894982Y-118118408D01*
X133894983Y-118118408D01*
X133835383Y-118112001D01*
X133835381Y-118112000D01*
X133835373Y-118112000D01*
X133835365Y-118112000D01*
X133262000Y-118112000D01*
X133194961Y-118092315D01*
X133149206Y-118039511D01*
X133138000Y-117988000D01*
X133138000Y-117667229D01*
X133157685Y-117600190D01*
X133174319Y-117579548D01*
X139082948Y-111670919D01*
X139082951Y-111670916D01*
X139165084Y-111547995D01*
X139221658Y-111411413D01*
X139250500Y-111266418D01*
X139250500Y-111118583D01*
X139250500Y-106362230D01*
X139270185Y-106295191D01*
X139286819Y-106274549D01*
X139650064Y-105911304D01*
X142599500Y-105911304D01*
X142599500Y-106088695D01*
X142634103Y-106262658D01*
X142634106Y-106262667D01*
X142701983Y-106426540D01*
X142701990Y-106426553D01*
X142800535Y-106574034D01*
X142800538Y-106574038D01*
X142925961Y-106699461D01*
X142925965Y-106699464D01*
X143073446Y-106798009D01*
X143073459Y-106798016D01*
X143150106Y-106829763D01*
X143237334Y-106865894D01*
X143284318Y-106875239D01*
X143346227Y-106907622D01*
X143347807Y-106909175D01*
X146906452Y-110467819D01*
X146939937Y-110529142D01*
X146934953Y-110598834D01*
X146893081Y-110654767D01*
X146827617Y-110679184D01*
X146818771Y-110679500D01*
X145792229Y-110679500D01*
X145725190Y-110659815D01*
X145704548Y-110643181D01*
X144409175Y-109347807D01*
X144375690Y-109286484D01*
X144375262Y-109284432D01*
X144365894Y-109237334D01*
X144348379Y-109195048D01*
X144298016Y-109073459D01*
X144298009Y-109073446D01*
X144199464Y-108925965D01*
X144199461Y-108925961D01*
X144074038Y-108800538D01*
X144074034Y-108800535D01*
X143926553Y-108701990D01*
X143926540Y-108701983D01*
X143762667Y-108634106D01*
X143762658Y-108634103D01*
X143588694Y-108599500D01*
X143588691Y-108599500D01*
X143411309Y-108599500D01*
X143411306Y-108599500D01*
X143237341Y-108634103D01*
X143237332Y-108634106D01*
X143073459Y-108701983D01*
X143073446Y-108701990D01*
X142925965Y-108800535D01*
X142925961Y-108800538D01*
X142800538Y-108925961D01*
X142800535Y-108925965D01*
X142701990Y-109073446D01*
X142701983Y-109073459D01*
X142634106Y-109237332D01*
X142634103Y-109237341D01*
X142599500Y-109411304D01*
X142599500Y-109588695D01*
X142634103Y-109762658D01*
X142634106Y-109762667D01*
X142701983Y-109926540D01*
X142701990Y-109926553D01*
X142800535Y-110074034D01*
X142800538Y-110074038D01*
X142925961Y-110199461D01*
X142925965Y-110199464D01*
X143073446Y-110298009D01*
X143073459Y-110298016D01*
X143150106Y-110329763D01*
X143237334Y-110365894D01*
X143284318Y-110375239D01*
X143346227Y-110407622D01*
X143347807Y-110409175D01*
X144205051Y-111266418D01*
X144847049Y-111908416D01*
X144922873Y-111984240D01*
X144951585Y-112012952D01*
X145074498Y-112095080D01*
X145074511Y-112095087D01*
X145211082Y-112151656D01*
X145211087Y-112151658D01*
X145211091Y-112151658D01*
X145211092Y-112151659D01*
X145356079Y-112180500D01*
X145356082Y-112180500D01*
X155223920Y-112180500D01*
X155321462Y-112161096D01*
X155368913Y-112151658D01*
X155505495Y-112095084D01*
X155572774Y-112050130D01*
X155628416Y-112012952D01*
X155691192Y-111950174D01*
X155752515Y-111916690D01*
X155798271Y-111915383D01*
X155893713Y-111930500D01*
X155893714Y-111930500D01*
X156106286Y-111930500D01*
X156106287Y-111930500D01*
X156316243Y-111897246D01*
X156518412Y-111831557D01*
X156707816Y-111735051D01*
X156796091Y-111670916D01*
X156879786Y-111610109D01*
X156879788Y-111610106D01*
X156879792Y-111610104D01*
X157030104Y-111459792D01*
X157030106Y-111459788D01*
X157030109Y-111459786D01*
X157155048Y-111287820D01*
X157155047Y-111287820D01*
X157155051Y-111287816D01*
X157251557Y-111098412D01*
X157317246Y-110896243D01*
X157350500Y-110686287D01*
X157350500Y-110473713D01*
X157317246Y-110263757D01*
X157251557Y-110061588D01*
X157155051Y-109872184D01*
X157155049Y-109872181D01*
X157155048Y-109872179D01*
X157030109Y-109700213D01*
X156879786Y-109549890D01*
X156707820Y-109424951D01*
X156707115Y-109424591D01*
X156699054Y-109420485D01*
X156648259Y-109372512D01*
X156631463Y-109304692D01*
X156653999Y-109238556D01*
X156699054Y-109199515D01*
X156707816Y-109195051D01*
X156729789Y-109179086D01*
X156879786Y-109070109D01*
X156879788Y-109070106D01*
X156879792Y-109070104D01*
X157030104Y-108919792D01*
X157030106Y-108919788D01*
X157030109Y-108919786D01*
X157155048Y-108747820D01*
X157155047Y-108747820D01*
X157155051Y-108747816D01*
X157251557Y-108558412D01*
X157317246Y-108356243D01*
X157350500Y-108146287D01*
X157350500Y-107933713D01*
X157317246Y-107723757D01*
X157251557Y-107521588D01*
X157155051Y-107332184D01*
X157155049Y-107332181D01*
X157155048Y-107332179D01*
X157030109Y-107160213D01*
X156879786Y-107009890D01*
X156707817Y-106884949D01*
X156698504Y-106880204D01*
X156647707Y-106832230D01*
X156630912Y-106764409D01*
X156653449Y-106698274D01*
X156698507Y-106659232D01*
X156707555Y-106654622D01*
X156761716Y-106615270D01*
X156761717Y-106615270D01*
X156129408Y-105982962D01*
X156192993Y-105965925D01*
X156307007Y-105900099D01*
X156400099Y-105807007D01*
X156465925Y-105692993D01*
X156482962Y-105629408D01*
X157115270Y-106261717D01*
X157115270Y-106261716D01*
X157154622Y-106207554D01*
X157251095Y-106018217D01*
X157316757Y-105816130D01*
X157316757Y-105816127D01*
X157350000Y-105606246D01*
X157350000Y-105393753D01*
X157316757Y-105183872D01*
X157316757Y-105183869D01*
X157251095Y-104981782D01*
X157154624Y-104792449D01*
X157115270Y-104738282D01*
X157115269Y-104738282D01*
X156482962Y-105370590D01*
X156465925Y-105307007D01*
X156400099Y-105192993D01*
X156307007Y-105099901D01*
X156192993Y-105034075D01*
X156129409Y-105017037D01*
X156799627Y-104346818D01*
X156860950Y-104313333D01*
X156887307Y-104310499D01*
X156897872Y-104310499D01*
X156957483Y-104304091D01*
X157092331Y-104253796D01*
X157207546Y-104167546D01*
X157293796Y-104052331D01*
X157344091Y-103917483D01*
X157350500Y-103857873D01*
X157350499Y-102062128D01*
X157344091Y-102002517D01*
X157330822Y-101966942D01*
X157293797Y-101867671D01*
X157293793Y-101867664D01*
X157207547Y-101752455D01*
X157207544Y-101752452D01*
X157092335Y-101666206D01*
X157092328Y-101666202D01*
X156957482Y-101615908D01*
X156957483Y-101615908D01*
X156897883Y-101609501D01*
X156897881Y-101609500D01*
X156897873Y-101609500D01*
X156897864Y-101609500D01*
X155102129Y-101609500D01*
X155102123Y-101609501D01*
X155042516Y-101615908D01*
X154907671Y-101666202D01*
X154907664Y-101666206D01*
X154792455Y-101752452D01*
X154792452Y-101752455D01*
X154706206Y-101867664D01*
X154706202Y-101867671D01*
X154655908Y-102002517D01*
X154649782Y-102059500D01*
X154649501Y-102062123D01*
X154649500Y-102062135D01*
X154649500Y-102085500D01*
X154629815Y-102152539D01*
X154577011Y-102198294D01*
X154525500Y-102209500D01*
X146535270Y-102209500D01*
X146468231Y-102189815D01*
X146466378Y-102188601D01*
X146426552Y-102161989D01*
X146426547Y-102161987D01*
X146262667Y-102094106D01*
X146262658Y-102094103D01*
X146088694Y-102059500D01*
X146088691Y-102059500D01*
X145911309Y-102059500D01*
X145911306Y-102059500D01*
X145737341Y-102094103D01*
X145737332Y-102094106D01*
X145573459Y-102161983D01*
X145573446Y-102161990D01*
X145425965Y-102260535D01*
X145425961Y-102260538D01*
X145300538Y-102385961D01*
X145300535Y-102385965D01*
X145201990Y-102533446D01*
X145201983Y-102533459D01*
X145134106Y-102697332D01*
X145134103Y-102697341D01*
X145099500Y-102871304D01*
X145099500Y-103048695D01*
X145134103Y-103222658D01*
X145134106Y-103222667D01*
X145201983Y-103386540D01*
X145201990Y-103386553D01*
X145300535Y-103534034D01*
X145300538Y-103534038D01*
X145425961Y-103659461D01*
X145425965Y-103659464D01*
X145573446Y-103758009D01*
X145573459Y-103758016D01*
X145696363Y-103808923D01*
X145737334Y-103825894D01*
X145737336Y-103825894D01*
X145737341Y-103825896D01*
X145911304Y-103860499D01*
X145911307Y-103860500D01*
X145911309Y-103860500D01*
X146088693Y-103860500D01*
X146088694Y-103860499D01*
X146146682Y-103848964D01*
X146262658Y-103825896D01*
X146262661Y-103825894D01*
X146262666Y-103825894D01*
X146426547Y-103758013D01*
X146426550Y-103758010D01*
X146426552Y-103758010D01*
X146466378Y-103731399D01*
X146533055Y-103710520D01*
X146535270Y-103710500D01*
X154525501Y-103710500D01*
X154592540Y-103730185D01*
X154638295Y-103782989D01*
X154649501Y-103834500D01*
X154649501Y-103857876D01*
X154655908Y-103917483D01*
X154706202Y-104052328D01*
X154706206Y-104052335D01*
X154792452Y-104167544D01*
X154792455Y-104167547D01*
X154907664Y-104253793D01*
X154907671Y-104253797D01*
X154952618Y-104270561D01*
X155042517Y-104304091D01*
X155102127Y-104310500D01*
X155112685Y-104310499D01*
X155179723Y-104330179D01*
X155200372Y-104346818D01*
X155870591Y-105017037D01*
X155807007Y-105034075D01*
X155692993Y-105099901D01*
X155599901Y-105192993D01*
X155534075Y-105307007D01*
X155517037Y-105370591D01*
X154884728Y-104738282D01*
X154884727Y-104738282D01*
X154845380Y-104792439D01*
X154748904Y-104981782D01*
X154683242Y-105183869D01*
X154683242Y-105183872D01*
X154650000Y-105393753D01*
X154650000Y-105606246D01*
X154683242Y-105816127D01*
X154683242Y-105816130D01*
X154748904Y-106018217D01*
X154845375Y-106207550D01*
X154884728Y-106261716D01*
X155517037Y-105629408D01*
X155534075Y-105692993D01*
X155599901Y-105807007D01*
X155692993Y-105900099D01*
X155807007Y-105965925D01*
X155870590Y-105982962D01*
X155238282Y-106615269D01*
X155238282Y-106615270D01*
X155292452Y-106654626D01*
X155292451Y-106654626D01*
X155301495Y-106659234D01*
X155352292Y-106707208D01*
X155369087Y-106775029D01*
X155346550Y-106841164D01*
X155301499Y-106880202D01*
X155292182Y-106884949D01*
X155120213Y-107009890D01*
X154969890Y-107160213D01*
X154844951Y-107332179D01*
X154748444Y-107521585D01*
X154682753Y-107723760D01*
X154649500Y-107933713D01*
X154649500Y-108146292D01*
X154664616Y-108241728D01*
X154655662Y-108311021D01*
X154629824Y-108348807D01*
X153765451Y-109213181D01*
X153704128Y-109246666D01*
X153677770Y-109249500D01*
X147862229Y-109249500D01*
X147795190Y-109229815D01*
X147774548Y-109213181D01*
X144409175Y-105847807D01*
X144375690Y-105786484D01*
X144375262Y-105784432D01*
X144365894Y-105737334D01*
X144327445Y-105644508D01*
X144298016Y-105573459D01*
X144298014Y-105573455D01*
X144298013Y-105573453D01*
X144220717Y-105457772D01*
X144199464Y-105425964D01*
X144074038Y-105300538D01*
X144074034Y-105300535D01*
X143926553Y-105201990D01*
X143926540Y-105201983D01*
X143762667Y-105134106D01*
X143762658Y-105134103D01*
X143588694Y-105099500D01*
X143588691Y-105099500D01*
X143411309Y-105099500D01*
X143411306Y-105099500D01*
X143237341Y-105134103D01*
X143237332Y-105134106D01*
X143073459Y-105201983D01*
X143073446Y-105201990D01*
X142925965Y-105300535D01*
X142925961Y-105300538D01*
X142800538Y-105425961D01*
X142800535Y-105425965D01*
X142701990Y-105573446D01*
X142701983Y-105573459D01*
X142634106Y-105737332D01*
X142634103Y-105737341D01*
X142599500Y-105911304D01*
X139650064Y-105911304D01*
X155582947Y-89978421D01*
X155582952Y-89978416D01*
X155597765Y-89956245D01*
X155656618Y-89868167D01*
X155661468Y-89860906D01*
X155665084Y-89855495D01*
X155721658Y-89718913D01*
X155750500Y-89573918D01*
X155750500Y-88267220D01*
X155770185Y-88200181D01*
X155801614Y-88166902D01*
X155879792Y-88110104D01*
X156030104Y-87959792D01*
X156030106Y-87959788D01*
X156030109Y-87959786D01*
X156155048Y-87787820D01*
X156155047Y-87787820D01*
X156155051Y-87787816D01*
X156251557Y-87598412D01*
X156317246Y-87396243D01*
X156350500Y-87186287D01*
X156350500Y-86973713D01*
X156317246Y-86763757D01*
X156251557Y-86561588D01*
X156155051Y-86372184D01*
X156155049Y-86372181D01*
X156155048Y-86372179D01*
X156030109Y-86200213D01*
X155879786Y-86049890D01*
X155707820Y-85924951D01*
X155707115Y-85924591D01*
X155699054Y-85920485D01*
X155648259Y-85872512D01*
X155631463Y-85804692D01*
X155653999Y-85738556D01*
X155699054Y-85699515D01*
X155707816Y-85695051D01*
X155729789Y-85679086D01*
X155879786Y-85570109D01*
X155879788Y-85570106D01*
X155879792Y-85570104D01*
X156030104Y-85419792D01*
X156030106Y-85419788D01*
X156030109Y-85419786D01*
X156155048Y-85247820D01*
X156155047Y-85247820D01*
X156155051Y-85247816D01*
X156251557Y-85058412D01*
X156317246Y-84856243D01*
X156350500Y-84646287D01*
X156350500Y-84433713D01*
X156317246Y-84223757D01*
X156251557Y-84021588D01*
X156155051Y-83832184D01*
X156155049Y-83832181D01*
X156155048Y-83832179D01*
X156030109Y-83660213D01*
X155916569Y-83546673D01*
X155883084Y-83485350D01*
X155888068Y-83415658D01*
X155929940Y-83359725D01*
X155960915Y-83342810D01*
X156092331Y-83293796D01*
X156207546Y-83207546D01*
X156293796Y-83092331D01*
X156344091Y-82957483D01*
X156350500Y-82897873D01*
X156350499Y-81102128D01*
X156344091Y-81042517D01*
X156315903Y-80966942D01*
X156293797Y-80907671D01*
X156293793Y-80907664D01*
X156207547Y-80792455D01*
X156207544Y-80792452D01*
X156092335Y-80706206D01*
X156092328Y-80706202D01*
X155957482Y-80655908D01*
X155957483Y-80655908D01*
X155897883Y-80649501D01*
X155897881Y-80649500D01*
X155897873Y-80649500D01*
X155897864Y-80649500D01*
X154102129Y-80649500D01*
X154102123Y-80649501D01*
X154042516Y-80655908D01*
X153907671Y-80706202D01*
X153907664Y-80706206D01*
X153792455Y-80792452D01*
X153792452Y-80792455D01*
X153706206Y-80907664D01*
X153706202Y-80907671D01*
X153655908Y-81042517D01*
X153649501Y-81102116D01*
X153649501Y-81102123D01*
X153649500Y-81102135D01*
X153649500Y-82897870D01*
X153649501Y-82897876D01*
X153655908Y-82957483D01*
X153706202Y-83092328D01*
X153706206Y-83092335D01*
X153792452Y-83207544D01*
X153792455Y-83207547D01*
X153907664Y-83293793D01*
X153907671Y-83293797D01*
X154039082Y-83342810D01*
X154095016Y-83384681D01*
X154119433Y-83450145D01*
X154104582Y-83518418D01*
X154083431Y-83546673D01*
X153969889Y-83660215D01*
X153844951Y-83832179D01*
X153748444Y-84021585D01*
X153682753Y-84223760D01*
X153649500Y-84433713D01*
X153649500Y-84646286D01*
X153668105Y-84763757D01*
X153682754Y-84856243D01*
X153720922Y-84973713D01*
X153748444Y-85058414D01*
X153844951Y-85247820D01*
X153969890Y-85419786D01*
X154120213Y-85570109D01*
X154292182Y-85695050D01*
X154300946Y-85699516D01*
X154351742Y-85747491D01*
X154368536Y-85815312D01*
X154345998Y-85881447D01*
X154300946Y-85920484D01*
X154292182Y-85924949D01*
X154120213Y-86049890D01*
X153969890Y-86200213D01*
X153844951Y-86372179D01*
X153748444Y-86561585D01*
X153682753Y-86763760D01*
X153649500Y-86973713D01*
X153649500Y-87186286D01*
X153668105Y-87303757D01*
X153682754Y-87396243D01*
X153720922Y-87513713D01*
X153748444Y-87598414D01*
X153844951Y-87787820D01*
X153969890Y-87959786D01*
X153969896Y-87959792D01*
X154120208Y-88110104D01*
X154198384Y-88166902D01*
X154241051Y-88222231D01*
X154249500Y-88267220D01*
X154249500Y-89137769D01*
X154229815Y-89204808D01*
X154213181Y-89225450D01*
X137917052Y-105521578D01*
X137917049Y-105521581D01*
X137882390Y-105573452D01*
X137882391Y-105573453D01*
X137834914Y-105644508D01*
X137778343Y-105781082D01*
X137778340Y-105781092D01*
X137749500Y-105926079D01*
X137749500Y-110830269D01*
X137729815Y-110897308D01*
X137713181Y-110917950D01*
X131804550Y-116826580D01*
X131804544Y-116826588D01*
X131755312Y-116900268D01*
X131755313Y-116900269D01*
X131722421Y-116949496D01*
X131722414Y-116949508D01*
X131665842Y-117086086D01*
X131665840Y-117086092D01*
X131637000Y-117231079D01*
X131637000Y-117988000D01*
X131617315Y-118055039D01*
X131564511Y-118100794D01*
X131513000Y-118112000D01*
X130939629Y-118112000D01*
X130939623Y-118112001D01*
X130880016Y-118118408D01*
X130745171Y-118168702D01*
X130745164Y-118168706D01*
X130629955Y-118254952D01*
X130629952Y-118254955D01*
X130543706Y-118370164D01*
X130543702Y-118370171D01*
X130493408Y-118505017D01*
X130487001Y-118564616D01*
X130487001Y-118564623D01*
X130487000Y-118564635D01*
X120000500Y-118564635D01*
X120000500Y-110925646D01*
X122499500Y-110925646D01*
X122499500Y-111154353D01*
X122535278Y-111380246D01*
X122535278Y-111380249D01*
X122605950Y-111597755D01*
X122612245Y-111610109D01*
X122709783Y-111801538D01*
X122842525Y-111984242D01*
X122866005Y-112050046D01*
X122850180Y-112118100D01*
X122800074Y-112166795D01*
X122785541Y-112173308D01*
X122757670Y-112183703D01*
X122757664Y-112183706D01*
X122642455Y-112269952D01*
X122642452Y-112269955D01*
X122556206Y-112385164D01*
X122556202Y-112385171D01*
X122505908Y-112520017D01*
X122499501Y-112579616D01*
X122499501Y-112579623D01*
X122499500Y-112579635D01*
X122499500Y-114580370D01*
X122499501Y-114580376D01*
X122505908Y-114639983D01*
X122556202Y-114774828D01*
X122556206Y-114774835D01*
X122642452Y-114890044D01*
X122642455Y-114890047D01*
X122757664Y-114976293D01*
X122757671Y-114976297D01*
X122892517Y-115026591D01*
X122892516Y-115026591D01*
X122899444Y-115027335D01*
X122952127Y-115033000D01*
X125047872Y-115032999D01*
X125107483Y-115026591D01*
X125242331Y-114976296D01*
X125357546Y-114890046D01*
X125443796Y-114774831D01*
X125494091Y-114639983D01*
X125500500Y-114580373D01*
X125500499Y-112579628D01*
X125494091Y-112520017D01*
X125443796Y-112385169D01*
X125443795Y-112385168D01*
X125443793Y-112385164D01*
X125357547Y-112269955D01*
X125357544Y-112269952D01*
X125242335Y-112183706D01*
X125242328Y-112183702D01*
X125214459Y-112173308D01*
X125158525Y-112131437D01*
X125134108Y-112065973D01*
X125148960Y-111997700D01*
X125157460Y-111984260D01*
X125290217Y-111801538D01*
X125394048Y-111597758D01*
X125464722Y-111380245D01*
X125500500Y-111154354D01*
X125500500Y-110925646D01*
X125464722Y-110699755D01*
X125464721Y-110699751D01*
X125464721Y-110699750D01*
X125394049Y-110482244D01*
X125386699Y-110467819D01*
X125290217Y-110278462D01*
X125155786Y-110093434D01*
X124994066Y-109931714D01*
X124909134Y-109870007D01*
X124866470Y-109814678D01*
X124860491Y-109745064D01*
X124893097Y-109683269D01*
X124909137Y-109669371D01*
X124993739Y-109607905D01*
X125155402Y-109446242D01*
X125289788Y-109261276D01*
X125393582Y-109057570D01*
X125464234Y-108840128D01*
X125478509Y-108750000D01*
X124490748Y-108750000D01*
X124512518Y-108712292D01*
X124550000Y-108572409D01*
X124550000Y-108427591D01*
X124512518Y-108287708D01*
X124490748Y-108250000D01*
X125478509Y-108250000D01*
X125464234Y-108159871D01*
X125393582Y-107942429D01*
X125289788Y-107738723D01*
X125155402Y-107553757D01*
X124993742Y-107392097D01*
X124808776Y-107257711D01*
X124605068Y-107153917D01*
X124387625Y-107083265D01*
X124387626Y-107083265D01*
X124250000Y-107061467D01*
X124250000Y-108009252D01*
X124212292Y-107987482D01*
X124072409Y-107950000D01*
X123927591Y-107950000D01*
X123787708Y-107987482D01*
X123750000Y-108009252D01*
X123750000Y-107061467D01*
X123612374Y-107083265D01*
X123394931Y-107153917D01*
X123191223Y-107257711D01*
X123006257Y-107392097D01*
X122844597Y-107553757D01*
X122710211Y-107738723D01*
X122606417Y-107942429D01*
X122535765Y-108159871D01*
X122521491Y-108250000D01*
X123509252Y-108250000D01*
X123487482Y-108287708D01*
X123450000Y-108427591D01*
X123450000Y-108572409D01*
X123487482Y-108712292D01*
X123509252Y-108750000D01*
X122521491Y-108750000D01*
X122535765Y-108840128D01*
X122606417Y-109057570D01*
X122710211Y-109261276D01*
X122844597Y-109446242D01*
X123006257Y-109607902D01*
X123006263Y-109607907D01*
X123090863Y-109669372D01*
X123133529Y-109724701D01*
X123139508Y-109794315D01*
X123106903Y-109856110D01*
X123090864Y-109870007D01*
X123005940Y-109931709D01*
X123005931Y-109931716D01*
X122844216Y-110093431D01*
X122844216Y-110093432D01*
X122844214Y-110093434D01*
X122786480Y-110172896D01*
X122709783Y-110278461D01*
X122605950Y-110482244D01*
X122535278Y-110699750D01*
X122535278Y-110699753D01*
X122499500Y-110925646D01*
X120000500Y-110925646D01*
X120000500Y-79102135D01*
X122049500Y-79102135D01*
X122049500Y-80897870D01*
X122049501Y-80897876D01*
X122055908Y-80957483D01*
X122106202Y-81092328D01*
X122106206Y-81092335D01*
X122192452Y-81207544D01*
X122192455Y-81207547D01*
X122307664Y-81293793D01*
X122307671Y-81293797D01*
X122439082Y-81342810D01*
X122495016Y-81384681D01*
X122519433Y-81450145D01*
X122504582Y-81518418D01*
X122483431Y-81546673D01*
X122369889Y-81660215D01*
X122244951Y-81832179D01*
X122148444Y-82021585D01*
X122082753Y-82223760D01*
X122060241Y-82365896D01*
X122049500Y-82433713D01*
X122049500Y-82646287D01*
X122082754Y-82856243D01*
X122096281Y-82897876D01*
X122148444Y-83058414D01*
X122244951Y-83247820D01*
X122369890Y-83419786D01*
X122520213Y-83570109D01*
X122692182Y-83695050D01*
X122700946Y-83699516D01*
X122751742Y-83747491D01*
X122768536Y-83815312D01*
X122745998Y-83881447D01*
X122700946Y-83920484D01*
X122692182Y-83924949D01*
X122520213Y-84049890D01*
X122369890Y-84200213D01*
X122244951Y-84372179D01*
X122148444Y-84561585D01*
X122148443Y-84561587D01*
X122148443Y-84561588D01*
X122115598Y-84662672D01*
X122082753Y-84763760D01*
X122049500Y-84973713D01*
X122049500Y-85186286D01*
X122082753Y-85396239D01*
X122148444Y-85598414D01*
X122244951Y-85787820D01*
X122369890Y-85959786D01*
X122520213Y-86110109D01*
X122692182Y-86235050D01*
X122700946Y-86239516D01*
X122751742Y-86287491D01*
X122768536Y-86355312D01*
X122745998Y-86421447D01*
X122700946Y-86460484D01*
X122692182Y-86464949D01*
X122520213Y-86589890D01*
X122369890Y-86740213D01*
X122244951Y-86912179D01*
X122148444Y-87101585D01*
X122148443Y-87101587D01*
X122148443Y-87101588D01*
X122115598Y-87202672D01*
X122082753Y-87303760D01*
X122049500Y-87513713D01*
X122049500Y-87726287D01*
X122082754Y-87936243D01*
X122139244Y-88110102D01*
X122148444Y-88138414D01*
X122244951Y-88327820D01*
X122369890Y-88499786D01*
X122520213Y-88650109D01*
X122692182Y-88775050D01*
X122700946Y-88779516D01*
X122751742Y-88827491D01*
X122768536Y-88895312D01*
X122745998Y-88961447D01*
X122700946Y-89000484D01*
X122692182Y-89004949D01*
X122520213Y-89129890D01*
X122369890Y-89280213D01*
X122244951Y-89452179D01*
X122148444Y-89641585D01*
X122082753Y-89843760D01*
X122049500Y-90053713D01*
X122049500Y-90266286D01*
X122082753Y-90476239D01*
X122148444Y-90678414D01*
X122244951Y-90867820D01*
X122369890Y-91039786D01*
X122520213Y-91190109D01*
X122692179Y-91315048D01*
X122692181Y-91315049D01*
X122692184Y-91315051D01*
X122701493Y-91319794D01*
X122752290Y-91367766D01*
X122769087Y-91435587D01*
X122746552Y-91501722D01*
X122701505Y-91540760D01*
X122692446Y-91545376D01*
X122692440Y-91545380D01*
X122638282Y-91584727D01*
X122638282Y-91584728D01*
X123270591Y-92217037D01*
X123207007Y-92234075D01*
X123092993Y-92299901D01*
X122999901Y-92392993D01*
X122934075Y-92507007D01*
X122917037Y-92570591D01*
X122284728Y-91938282D01*
X122284727Y-91938282D01*
X122245380Y-91992439D01*
X122148904Y-92181782D01*
X122083242Y-92383869D01*
X122083242Y-92383872D01*
X122050000Y-92593753D01*
X122050000Y-92806246D01*
X122083242Y-93016127D01*
X122083242Y-93016130D01*
X122148904Y-93218217D01*
X122245375Y-93407550D01*
X122284728Y-93461716D01*
X122917037Y-92829408D01*
X122934075Y-92892993D01*
X122999901Y-93007007D01*
X123092993Y-93100099D01*
X123207007Y-93165925D01*
X123270590Y-93182962D01*
X122638282Y-93815269D01*
X122638282Y-93815270D01*
X122692449Y-93854624D01*
X122881782Y-93951095D01*
X123083870Y-94016757D01*
X123293754Y-94050000D01*
X123506246Y-94050000D01*
X123716127Y-94016757D01*
X123716130Y-94016757D01*
X123918217Y-93951095D01*
X124107554Y-93854622D01*
X124161716Y-93815270D01*
X124161717Y-93815270D01*
X123529408Y-93182962D01*
X123592993Y-93165925D01*
X123707007Y-93100099D01*
X123800099Y-93007007D01*
X123865925Y-92892993D01*
X123882962Y-92829408D01*
X124515270Y-93461717D01*
X124515270Y-93461716D01*
X124554622Y-93407554D01*
X124651095Y-93218217D01*
X124716757Y-93016130D01*
X124716757Y-93016127D01*
X124750000Y-92806246D01*
X124750000Y-92593753D01*
X124716757Y-92383872D01*
X124716757Y-92383869D01*
X124651095Y-92181782D01*
X124554624Y-91992449D01*
X124515270Y-91938282D01*
X124515269Y-91938282D01*
X123882962Y-92570590D01*
X123865925Y-92507007D01*
X123800099Y-92392993D01*
X123707007Y-92299901D01*
X123592993Y-92234075D01*
X123529409Y-92217037D01*
X124161716Y-91584728D01*
X124107547Y-91545373D01*
X124107547Y-91545372D01*
X124098500Y-91540763D01*
X124047706Y-91492788D01*
X124030912Y-91424966D01*
X124053451Y-91358832D01*
X124098508Y-91319793D01*
X124107816Y-91315051D01*
X124187007Y-91257515D01*
X124279786Y-91190109D01*
X124279788Y-91190106D01*
X124279792Y-91190104D01*
X124430104Y-91039792D01*
X124430106Y-91039788D01*
X124430109Y-91039786D01*
X124555048Y-90867820D01*
X124555047Y-90867820D01*
X124555051Y-90867816D01*
X124651557Y-90678412D01*
X124717246Y-90476243D01*
X124750500Y-90266287D01*
X124750500Y-90053713D01*
X124717246Y-89843757D01*
X124651557Y-89641588D01*
X124555051Y-89452184D01*
X124555049Y-89452181D01*
X124555048Y-89452179D01*
X124430109Y-89280213D01*
X124279786Y-89129890D01*
X124107820Y-89004951D01*
X124107115Y-89004591D01*
X124099054Y-89000485D01*
X124048259Y-88952512D01*
X124031463Y-88884692D01*
X124053999Y-88818556D01*
X124099054Y-88779515D01*
X124107816Y-88775051D01*
X124129789Y-88759086D01*
X124279786Y-88650109D01*
X124279788Y-88650106D01*
X124279792Y-88650104D01*
X124430104Y-88499792D01*
X124430106Y-88499788D01*
X124430109Y-88499786D01*
X124555048Y-88327820D01*
X124555047Y-88327820D01*
X124555051Y-88327816D01*
X124651557Y-88138412D01*
X124717246Y-87936243D01*
X124750500Y-87726287D01*
X124750500Y-87513713D01*
X124717246Y-87303757D01*
X124651557Y-87101588D01*
X124555051Y-86912184D01*
X124555049Y-86912181D01*
X124555048Y-86912179D01*
X124430109Y-86740213D01*
X124279786Y-86589890D01*
X124107820Y-86464951D01*
X124107115Y-86464591D01*
X124099054Y-86460485D01*
X124048259Y-86412512D01*
X124031463Y-86344692D01*
X124053999Y-86278556D01*
X124099054Y-86239515D01*
X124107816Y-86235051D01*
X124155774Y-86200208D01*
X124279786Y-86110109D01*
X124279788Y-86110106D01*
X124279792Y-86110104D01*
X124430104Y-85959792D01*
X124430106Y-85959788D01*
X124430109Y-85959786D01*
X124555048Y-85787820D01*
X124555047Y-85787820D01*
X124555051Y-85787816D01*
X124651557Y-85598412D01*
X124717246Y-85396243D01*
X124750500Y-85186287D01*
X124750500Y-84973713D01*
X124717246Y-84763757D01*
X124651557Y-84561588D01*
X124555051Y-84372184D01*
X124555049Y-84372181D01*
X124555048Y-84372179D01*
X124430109Y-84200213D01*
X124279786Y-84049890D01*
X124107820Y-83924951D01*
X124107115Y-83924591D01*
X124099054Y-83920485D01*
X124048259Y-83872512D01*
X124031463Y-83804692D01*
X124053999Y-83738556D01*
X124099054Y-83699515D01*
X124107816Y-83695051D01*
X124155774Y-83660208D01*
X124279786Y-83570109D01*
X124279788Y-83570106D01*
X124279792Y-83570104D01*
X124430104Y-83419792D01*
X124430106Y-83419788D01*
X124430109Y-83419786D01*
X124555048Y-83247820D01*
X124555047Y-83247820D01*
X124555051Y-83247816D01*
X124651557Y-83058412D01*
X124717246Y-82856243D01*
X124750500Y-82646287D01*
X124750500Y-82433713D01*
X124717246Y-82223757D01*
X124651557Y-82021588D01*
X124555051Y-81832184D01*
X124555049Y-81832181D01*
X124555048Y-81832179D01*
X124430109Y-81660213D01*
X124316569Y-81546673D01*
X124283084Y-81485350D01*
X124288068Y-81415658D01*
X124329940Y-81359725D01*
X124360915Y-81342810D01*
X124492331Y-81293796D01*
X124607546Y-81207546D01*
X124693796Y-81092331D01*
X124744091Y-80957483D01*
X124750500Y-80897873D01*
X124750499Y-79762228D01*
X124770184Y-79695190D01*
X124786813Y-79674553D01*
X125528191Y-78933175D01*
X125546677Y-78923081D01*
X125562349Y-78909003D01*
X125576728Y-78906672D01*
X125589512Y-78899692D01*
X125610523Y-78901194D01*
X125631318Y-78897824D01*
X125644673Y-78903636D01*
X125659204Y-78904676D01*
X125676067Y-78917300D01*
X125695383Y-78925707D01*
X125711984Y-78944188D01*
X125715137Y-78946548D01*
X125718969Y-78951963D01*
X125728599Y-78966374D01*
X125749480Y-79033051D01*
X125749500Y-79035269D01*
X125749500Y-80964729D01*
X125729815Y-81031768D01*
X125728602Y-81033620D01*
X125701988Y-81073449D01*
X125701987Y-81073452D01*
X125634106Y-81237332D01*
X125634103Y-81237341D01*
X125599500Y-81411304D01*
X125599500Y-81588695D01*
X125634103Y-81762658D01*
X125634106Y-81762667D01*
X125701983Y-81926540D01*
X125701990Y-81926553D01*
X125800535Y-82074034D01*
X125800538Y-82074038D01*
X125925961Y-82199461D01*
X125925965Y-82199464D01*
X126073446Y-82298009D01*
X126073459Y-82298016D01*
X126196363Y-82348923D01*
X126237334Y-82365894D01*
X126237336Y-82365894D01*
X126237341Y-82365896D01*
X126411304Y-82400499D01*
X126411307Y-82400500D01*
X126411309Y-82400500D01*
X126588693Y-82400500D01*
X126588694Y-82400499D01*
X126646682Y-82388964D01*
X126762658Y-82365896D01*
X126762661Y-82365894D01*
X126762666Y-82365894D01*
X126926547Y-82298013D01*
X127074035Y-82199464D01*
X127199464Y-82074035D01*
X127298013Y-81926547D01*
X127365894Y-81762666D01*
X127400500Y-81588691D01*
X127400500Y-81411309D01*
X127400500Y-81411306D01*
X127400499Y-81411304D01*
X127365896Y-81237341D01*
X127365893Y-81237332D01*
X127353556Y-81207547D01*
X127298013Y-81073453D01*
X127298011Y-81073451D01*
X127298011Y-81073449D01*
X127271398Y-81033620D01*
X127250520Y-80966942D01*
X127250500Y-80964729D01*
X127250500Y-79035269D01*
X127270185Y-78968230D01*
X127271398Y-78966378D01*
X127271401Y-78966374D01*
X127298013Y-78926547D01*
X127365894Y-78762666D01*
X127377126Y-78706202D01*
X127388968Y-78646666D01*
X127400500Y-78588691D01*
X127400500Y-78411309D01*
X127400500Y-78411306D01*
X127400499Y-78411304D01*
X127365896Y-78237341D01*
X127365893Y-78237332D01*
X127298016Y-78073459D01*
X127298014Y-78073455D01*
X127298013Y-78073453D01*
X127211108Y-77943391D01*
X127190230Y-77876714D01*
X127208714Y-77809334D01*
X127260693Y-77762643D01*
X127314210Y-77750500D01*
X132964730Y-77750500D01*
X133031769Y-77770185D01*
X133033622Y-77771399D01*
X133073447Y-77798010D01*
X133073450Y-77798011D01*
X133073453Y-77798013D01*
X133237334Y-77865894D01*
X133237336Y-77865894D01*
X133237341Y-77865896D01*
X133411304Y-77900499D01*
X133411307Y-77900500D01*
X133411309Y-77900500D01*
X133588693Y-77900500D01*
X133588694Y-77900499D01*
X133646682Y-77888964D01*
X133762658Y-77865896D01*
X133762661Y-77865894D01*
X133762666Y-77865894D01*
X133926547Y-77798013D01*
X134074035Y-77699464D01*
X134199464Y-77574035D01*
X134298013Y-77426547D01*
X134365894Y-77262666D01*
X134400500Y-77088691D01*
X134400500Y-76911309D01*
X134400500Y-76911306D01*
X134368650Y-76751188D01*
X134374877Y-76681596D01*
X134417740Y-76626419D01*
X134483630Y-76603174D01*
X134551627Y-76619242D01*
X134577948Y-76639315D01*
X135713181Y-77774548D01*
X135746666Y-77835871D01*
X135749500Y-77862229D01*
X135749500Y-94464729D01*
X135729815Y-94531768D01*
X135728602Y-94533620D01*
X135701988Y-94573449D01*
X135701987Y-94573452D01*
X135634106Y-94737332D01*
X135634103Y-94737341D01*
X135599500Y-94911304D01*
X135599500Y-95088695D01*
X135634103Y-95262658D01*
X135634106Y-95262667D01*
X135701983Y-95426540D01*
X135701990Y-95426553D01*
X135800535Y-95574034D01*
X135800538Y-95574038D01*
X135925961Y-95699461D01*
X135925965Y-95699464D01*
X136073446Y-95798009D01*
X136073459Y-95798016D01*
X136196363Y-95848923D01*
X136237334Y-95865894D01*
X136237336Y-95865894D01*
X136237341Y-95865896D01*
X136411304Y-95900499D01*
X136411307Y-95900500D01*
X136411309Y-95900500D01*
X136588692Y-95900500D01*
X136601304Y-95897991D01*
X136670895Y-95904215D01*
X136726075Y-95947076D01*
X136749322Y-96012965D01*
X136749500Y-96019607D01*
X136749500Y-101964729D01*
X136729815Y-102031768D01*
X136728602Y-102033620D01*
X136701988Y-102073449D01*
X136701987Y-102073452D01*
X136634106Y-102237332D01*
X136634103Y-102237341D01*
X136599500Y-102411304D01*
X136599500Y-102588695D01*
X136634103Y-102762658D01*
X136634106Y-102762667D01*
X136701983Y-102926540D01*
X136701990Y-102926553D01*
X136800535Y-103074034D01*
X136800538Y-103074038D01*
X136925961Y-103199461D01*
X136925965Y-103199464D01*
X137073446Y-103298009D01*
X137073459Y-103298016D01*
X137196363Y-103348923D01*
X137237334Y-103365894D01*
X137237336Y-103365894D01*
X137237341Y-103365896D01*
X137411304Y-103400499D01*
X137411307Y-103400500D01*
X137411309Y-103400500D01*
X137588693Y-103400500D01*
X137588694Y-103400499D01*
X137658872Y-103386540D01*
X137762658Y-103365896D01*
X137762661Y-103365894D01*
X137762666Y-103365894D01*
X137926547Y-103298013D01*
X138074035Y-103199464D01*
X138199464Y-103074035D01*
X138298013Y-102926547D01*
X138365894Y-102762666D01*
X138378890Y-102697334D01*
X138400499Y-102588695D01*
X138400500Y-102588693D01*
X138400500Y-102411306D01*
X138400499Y-102411304D01*
X138365896Y-102237341D01*
X138365893Y-102237332D01*
X138345708Y-102188601D01*
X138298013Y-102073453D01*
X138298011Y-102073451D01*
X138298011Y-102073449D01*
X138271398Y-102033620D01*
X138250520Y-101966942D01*
X138250500Y-101964729D01*
X138250500Y-75926079D01*
X138221659Y-75781092D01*
X138221658Y-75781091D01*
X138221658Y-75781087D01*
X138221656Y-75781082D01*
X138165087Y-75644511D01*
X138165080Y-75644498D01*
X138082952Y-75521585D01*
X138082951Y-75521584D01*
X137978416Y-75417049D01*
X130418854Y-67857486D01*
X136399500Y-67857486D01*
X136399500Y-68042514D01*
X136404493Y-68074038D01*
X136428445Y-68225265D01*
X136485619Y-68401232D01*
X136485620Y-68401235D01*
X136515990Y-68460838D01*
X136569622Y-68566096D01*
X136678379Y-68715787D01*
X136809213Y-68846621D01*
X136958904Y-68955378D01*
X137039763Y-68996577D01*
X137123764Y-69039379D01*
X137123767Y-69039380D01*
X137211750Y-69067967D01*
X137299736Y-69096555D01*
X137482486Y-69125500D01*
X137482487Y-69125500D01*
X137667513Y-69125500D01*
X137667514Y-69125500D01*
X137850264Y-69096555D01*
X138026235Y-69039379D01*
X138191096Y-68955378D01*
X138340787Y-68846621D01*
X138471621Y-68715787D01*
X138580378Y-68566096D01*
X138664379Y-68401235D01*
X138721555Y-68225264D01*
X138750500Y-68042514D01*
X138750500Y-67857486D01*
X141249500Y-67857486D01*
X141249500Y-68042514D01*
X141254493Y-68074038D01*
X141278445Y-68225265D01*
X141335619Y-68401232D01*
X141335620Y-68401235D01*
X141365990Y-68460838D01*
X141419622Y-68566096D01*
X141528379Y-68715787D01*
X141659213Y-68846621D01*
X141808904Y-68955378D01*
X141889763Y-68996577D01*
X141973764Y-69039379D01*
X141973767Y-69039380D01*
X142061750Y-69067967D01*
X142149736Y-69096555D01*
X142332486Y-69125500D01*
X142332487Y-69125500D01*
X142517513Y-69125500D01*
X142517514Y-69125500D01*
X142700264Y-69096555D01*
X142876235Y-69039379D01*
X143041096Y-68955378D01*
X143101759Y-68911304D01*
X145099500Y-68911304D01*
X145099500Y-69088695D01*
X145134103Y-69262658D01*
X145134106Y-69262667D01*
X145201984Y-69426542D01*
X145201985Y-69426543D01*
X145201987Y-69426547D01*
X145228602Y-69466378D01*
X145249480Y-69533055D01*
X145249500Y-69535269D01*
X145249500Y-76464729D01*
X145229815Y-76531768D01*
X145228602Y-76533620D01*
X145201988Y-76573449D01*
X145201987Y-76573452D01*
X145134106Y-76737332D01*
X145134103Y-76737341D01*
X145099500Y-76911304D01*
X145099500Y-77088695D01*
X145134103Y-77262658D01*
X145134106Y-77262667D01*
X145201983Y-77426540D01*
X145201990Y-77426553D01*
X145300535Y-77574034D01*
X145300538Y-77574038D01*
X145425961Y-77699461D01*
X145425965Y-77699464D01*
X145573446Y-77798009D01*
X145573459Y-77798016D01*
X145664851Y-77835871D01*
X145737334Y-77865894D01*
X145737336Y-77865894D01*
X145737341Y-77865896D01*
X145911304Y-77900499D01*
X145911307Y-77900500D01*
X145911309Y-77900500D01*
X146088693Y-77900500D01*
X146088694Y-77900499D01*
X146146682Y-77888964D01*
X146262658Y-77865896D01*
X146262661Y-77865894D01*
X146262666Y-77865894D01*
X146426547Y-77798013D01*
X146574035Y-77699464D01*
X146699464Y-77574035D01*
X146798013Y-77426547D01*
X146865894Y-77262666D01*
X146900500Y-77088691D01*
X146900500Y-76911309D01*
X146900500Y-76911306D01*
X146900499Y-76911304D01*
X146865896Y-76737341D01*
X146865893Y-76737332D01*
X146842807Y-76681596D01*
X146798013Y-76573453D01*
X146798011Y-76573451D01*
X146798011Y-76573449D01*
X146771398Y-76533620D01*
X146750520Y-76466942D01*
X146750500Y-76464729D01*
X146750500Y-69535269D01*
X146770185Y-69468230D01*
X146771398Y-69466378D01*
X146798013Y-69426547D01*
X146865894Y-69262666D01*
X146900500Y-69088691D01*
X146900500Y-68911309D01*
X146900500Y-68911306D01*
X146900499Y-68911304D01*
X146865896Y-68737341D01*
X146865893Y-68737332D01*
X146798016Y-68573459D01*
X146798009Y-68573446D01*
X146699464Y-68425965D01*
X146699461Y-68425961D01*
X146574038Y-68300538D01*
X146574034Y-68300535D01*
X146426553Y-68201990D01*
X146426540Y-68201983D01*
X146262667Y-68134106D01*
X146262658Y-68134103D01*
X146088694Y-68099500D01*
X146088691Y-68099500D01*
X145911309Y-68099500D01*
X145911306Y-68099500D01*
X145737341Y-68134103D01*
X145737332Y-68134106D01*
X145573459Y-68201983D01*
X145573446Y-68201990D01*
X145425965Y-68300535D01*
X145425961Y-68300538D01*
X145300538Y-68425961D01*
X145300535Y-68425965D01*
X145201990Y-68573446D01*
X145201983Y-68573459D01*
X145134106Y-68737332D01*
X145134103Y-68737341D01*
X145099500Y-68911304D01*
X143101759Y-68911304D01*
X143190787Y-68846621D01*
X143321621Y-68715787D01*
X143430378Y-68566096D01*
X143514379Y-68401235D01*
X143571555Y-68225264D01*
X143600500Y-68042514D01*
X143600500Y-67857486D01*
X143571555Y-67674736D01*
X143514379Y-67498765D01*
X143514379Y-67498764D01*
X143430377Y-67333903D01*
X143415764Y-67313790D01*
X143321621Y-67184213D01*
X143190787Y-67053379D01*
X143041096Y-66944622D01*
X143004472Y-66925961D01*
X142876235Y-66860620D01*
X142876232Y-66860619D01*
X142700265Y-66803445D01*
X142608889Y-66788972D01*
X142517514Y-66774500D01*
X142332486Y-66774500D01*
X142271569Y-66784148D01*
X142149734Y-66803445D01*
X141973767Y-66860619D01*
X141973764Y-66860620D01*
X141808903Y-66944622D01*
X141736857Y-66996967D01*
X141659213Y-67053379D01*
X141659211Y-67053381D01*
X141659210Y-67053381D01*
X141528381Y-67184210D01*
X141528381Y-67184211D01*
X141528379Y-67184213D01*
X141494192Y-67231267D01*
X141419622Y-67333903D01*
X141335620Y-67498764D01*
X141335619Y-67498767D01*
X141278445Y-67674734D01*
X141278445Y-67674736D01*
X141249500Y-67857486D01*
X138750500Y-67857486D01*
X138721555Y-67674736D01*
X138664379Y-67498765D01*
X138664379Y-67498764D01*
X138580377Y-67333903D01*
X138565764Y-67313790D01*
X138471621Y-67184213D01*
X138340787Y-67053379D01*
X138191096Y-66944622D01*
X138154472Y-66925961D01*
X138026235Y-66860620D01*
X138026232Y-66860619D01*
X137850265Y-66803445D01*
X137758889Y-66788972D01*
X137667514Y-66774500D01*
X137482486Y-66774500D01*
X137421569Y-66784148D01*
X137299734Y-66803445D01*
X137123767Y-66860619D01*
X137123764Y-66860620D01*
X136958903Y-66944622D01*
X136886857Y-66996967D01*
X136809213Y-67053379D01*
X136809211Y-67053381D01*
X136809210Y-67053381D01*
X136678381Y-67184210D01*
X136678381Y-67184211D01*
X136678379Y-67184213D01*
X136644192Y-67231267D01*
X136569622Y-67333903D01*
X136485620Y-67498764D01*
X136485619Y-67498767D01*
X136428445Y-67674734D01*
X136428445Y-67674736D01*
X136399500Y-67857486D01*
X130418854Y-67857486D01*
X127409175Y-64847807D01*
X127375690Y-64786484D01*
X127375262Y-64784432D01*
X127365894Y-64737334D01*
X127348923Y-64696363D01*
X127298016Y-64573459D01*
X127298009Y-64573446D01*
X127199464Y-64425965D01*
X127199461Y-64425961D01*
X127074038Y-64300538D01*
X127074034Y-64300535D01*
X126926553Y-64201990D01*
X126926540Y-64201983D01*
X126762667Y-64134106D01*
X126762658Y-64134103D01*
X126588694Y-64099500D01*
X126588691Y-64099500D01*
X126411309Y-64099500D01*
X126411306Y-64099500D01*
X126237341Y-64134103D01*
X126237332Y-64134106D01*
X126073459Y-64201983D01*
X126073446Y-64201990D01*
X125925965Y-64300535D01*
X125925961Y-64300538D01*
X125800538Y-64425961D01*
X125800535Y-64425965D01*
X125701990Y-64573446D01*
X125701983Y-64573459D01*
X125634106Y-64737332D01*
X125634103Y-64737341D01*
X125599500Y-64911304D01*
X125599500Y-65088695D01*
X125634103Y-65262658D01*
X125634106Y-65262667D01*
X125701983Y-65426540D01*
X125701990Y-65426553D01*
X125800535Y-65574034D01*
X125800538Y-65574038D01*
X125925961Y-65699461D01*
X125925965Y-65699464D01*
X126073446Y-65798009D01*
X126073459Y-65798016D01*
X126150106Y-65829763D01*
X126237334Y-65865894D01*
X126284318Y-65875239D01*
X126346227Y-65907622D01*
X126347807Y-65909175D01*
X126860683Y-66422051D01*
X126894168Y-66483374D01*
X126889184Y-66553066D01*
X126847312Y-66608999D01*
X126781848Y-66633416D01*
X126748811Y-66631349D01*
X126588695Y-66599500D01*
X126588691Y-66599500D01*
X126411309Y-66599500D01*
X126411306Y-66599500D01*
X126237341Y-66634103D01*
X126237332Y-66634106D01*
X126073459Y-66701983D01*
X126073446Y-66701990D01*
X125925965Y-66800535D01*
X125925961Y-66800538D01*
X125800538Y-66925961D01*
X125800535Y-66925965D01*
X125701990Y-67073446D01*
X125701983Y-67073459D01*
X125634106Y-67237332D01*
X125634103Y-67237341D01*
X125599500Y-67411304D01*
X125599500Y-67588695D01*
X125634103Y-67762658D01*
X125634106Y-67762667D01*
X125701983Y-67926540D01*
X125701990Y-67926553D01*
X125800535Y-68074034D01*
X125800538Y-68074038D01*
X125925961Y-68199461D01*
X125925965Y-68199464D01*
X126073446Y-68298009D01*
X126073459Y-68298016D01*
X126150106Y-68329763D01*
X126237334Y-68365894D01*
X126284318Y-68375239D01*
X126346227Y-68407622D01*
X126347807Y-68409175D01*
X133860684Y-75922051D01*
X133894169Y-75983374D01*
X133889185Y-76053066D01*
X133847313Y-76108999D01*
X133781849Y-76133416D01*
X133748812Y-76131349D01*
X133588695Y-76099500D01*
X133588691Y-76099500D01*
X133411309Y-76099500D01*
X133411306Y-76099500D01*
X133237341Y-76134103D01*
X133237332Y-76134106D01*
X133073452Y-76201987D01*
X133073447Y-76201989D01*
X133033622Y-76228601D01*
X132966945Y-76249480D01*
X132964730Y-76249500D01*
X126326076Y-76249500D01*
X126297242Y-76255234D01*
X126297243Y-76255235D01*
X126181093Y-76278339D01*
X126181083Y-76278342D01*
X126101081Y-76311479D01*
X126101082Y-76311480D01*
X126044506Y-76334915D01*
X126013708Y-76355494D01*
X125921582Y-76417049D01*
X125921579Y-76417052D01*
X123725449Y-78613181D01*
X123664126Y-78646666D01*
X123637768Y-78649500D01*
X122502129Y-78649500D01*
X122502123Y-78649501D01*
X122442516Y-78655908D01*
X122307671Y-78706202D01*
X122307664Y-78706206D01*
X122192455Y-78792452D01*
X122192452Y-78792455D01*
X122106206Y-78907664D01*
X122106202Y-78907671D01*
X122055908Y-79042517D01*
X122049501Y-79102116D01*
X122049500Y-79102135D01*
X120000500Y-79102135D01*
X120000500Y-67003051D01*
X120000649Y-66996967D01*
X120005278Y-66902732D01*
X120017052Y-66663068D01*
X120018245Y-66650961D01*
X120060636Y-66365186D01*
X120599500Y-66365186D01*
X120599500Y-66634813D01*
X120629686Y-66902719D01*
X120629687Y-66902728D01*
X120629688Y-66902732D01*
X120639249Y-66944622D01*
X120689684Y-67165594D01*
X120689687Y-67165602D01*
X120778734Y-67420082D01*
X120895714Y-67662994D01*
X120895716Y-67662997D01*
X121039162Y-67891289D01*
X121078243Y-67940295D01*
X121205204Y-68099500D01*
X121207266Y-68102085D01*
X121397915Y-68292734D01*
X121608711Y-68460838D01*
X121837003Y-68604284D01*
X122079921Y-68721267D01*
X122271049Y-68788145D01*
X122334397Y-68810312D01*
X122334405Y-68810315D01*
X122334408Y-68810315D01*
X122334409Y-68810316D01*
X122597268Y-68870312D01*
X122865187Y-68900499D01*
X122865188Y-68900500D01*
X122865191Y-68900500D01*
X123134812Y-68900500D01*
X123134812Y-68900499D01*
X123402732Y-68870312D01*
X123665591Y-68810316D01*
X123920079Y-68721267D01*
X124162997Y-68604284D01*
X124391289Y-68460838D01*
X124602085Y-68292734D01*
X124792734Y-68102085D01*
X124960838Y-67891289D01*
X125104284Y-67662997D01*
X125221267Y-67420079D01*
X125310316Y-67165591D01*
X125370312Y-66902732D01*
X125400500Y-66634809D01*
X125400500Y-66365191D01*
X125370312Y-66097268D01*
X125310316Y-65834409D01*
X125221267Y-65579921D01*
X125104284Y-65337003D01*
X124960838Y-65108711D01*
X124792734Y-64897915D01*
X124602085Y-64707266D01*
X124391289Y-64539162D01*
X124172342Y-64401588D01*
X124162994Y-64395714D01*
X123920082Y-64278734D01*
X123665602Y-64189687D01*
X123665594Y-64189684D01*
X123468446Y-64144687D01*
X123402732Y-64129688D01*
X123402728Y-64129687D01*
X123402719Y-64129686D01*
X123134813Y-64099500D01*
X123134809Y-64099500D01*
X122865191Y-64099500D01*
X122865186Y-64099500D01*
X122597280Y-64129686D01*
X122597268Y-64129688D01*
X122334405Y-64189684D01*
X122334397Y-64189687D01*
X122079917Y-64278734D01*
X121837005Y-64395714D01*
X121608712Y-64539161D01*
X121397915Y-64707265D01*
X121207265Y-64897915D01*
X121039161Y-65108712D01*
X120895714Y-65337005D01*
X120778734Y-65579917D01*
X120689687Y-65834397D01*
X120689684Y-65834405D01*
X120629688Y-66097268D01*
X120629686Y-66097280D01*
X120599500Y-66365186D01*
X120060636Y-66365186D01*
X120066849Y-66323300D01*
X120069218Y-66311385D01*
X120149710Y-65990043D01*
X120153240Y-65978411D01*
X120264835Y-65666525D01*
X120269476Y-65655318D01*
X120411124Y-65355828D01*
X120416840Y-65345136D01*
X120587145Y-65060998D01*
X120593888Y-65050905D01*
X120791232Y-64784818D01*
X120798935Y-64775433D01*
X121021405Y-64529975D01*
X121029975Y-64521405D01*
X121275433Y-64298935D01*
X121284818Y-64291232D01*
X121550905Y-64093888D01*
X121560998Y-64087145D01*
X121845136Y-63916840D01*
X121855828Y-63911124D01*
X122155318Y-63769476D01*
X122166525Y-63764835D01*
X122478412Y-63653239D01*
X122490043Y-63649710D01*
X122811385Y-63569218D01*
X122823296Y-63566849D01*
X123150962Y-63518244D01*
X123163068Y-63517052D01*
X123496967Y-63500648D01*
X123503051Y-63500500D01*
X123565892Y-63500500D01*
X136569697Y-63500500D01*
X136636736Y-63520185D01*
G37*
%TD.AperFunction*%
%TD*%
M02*
