%TF.GenerationSoftware,KiCad,Pcbnew,10.0.1*%
%TF.CreationDate,2026-05-13T16:16:34+02:00*%
%TF.ProjectId,BiStage_Avio,42695374-6167-4655-9f41-76696f2e6b69,rev?*%
%TF.SameCoordinates,Original*%
%TF.FileFunction,Soldermask,Top*%
%TF.FilePolarity,Negative*%
%FSLAX46Y46*%
G04 Gerber Fmt 4.6, Leading zero omitted, Abs format (unit mm)*
G04 Created by KiCad (PCBNEW 10.0.1) date 2026-05-13 16:16:34*
%MOMM*%
%LPD*%
G01*
G04 APERTURE LIST*
G04 Aperture macros list*
%AMRoundRect*
0 Rectangle with rounded corners*
0 $1 Rounding radius*
0 $2 $3 $4 $5 $6 $7 $8 $9 X,Y pos of 4 corners*
0 Add a 4 corners polygon primitive as box body*
4,1,4,$2,$3,$4,$5,$6,$7,$8,$9,$2,$3,0*
0 Add four circle primitives for the rounded corners*
1,1,$1+$1,$2,$3*
1,1,$1+$1,$4,$5*
1,1,$1+$1,$6,$7*
1,1,$1+$1,$8,$9*
0 Add four rect primitives between the rounded corners*
20,1,$1+$1,$2,$3,$4,$5,0*
20,1,$1+$1,$4,$5,$6,$7,0*
20,1,$1+$1,$6,$7,$8,$9,0*
20,1,$1+$1,$8,$9,$2,$3,0*%
%AMFreePoly0*
4,1,37,0.800000,0.796148,0.878414,0.796148,1.032228,0.765552,1.177117,0.705537,1.307515,0.618408,1.418408,0.507515,1.505537,0.377117,1.565552,0.232228,1.596148,0.078414,1.596148,-0.078414,1.565552,-0.232228,1.505537,-0.377117,1.418408,-0.507515,1.307515,-0.618408,1.177117,-0.705537,1.032228,-0.765552,0.878414,-0.796148,0.800000,-0.796148,0.800000,-0.800000,-1.400000,-0.800000,
-1.403843,-0.796157,-1.439018,-0.796157,-1.511114,-0.766294,-1.566294,-0.711114,-1.596157,-0.639018,-1.596157,-0.603843,-1.600000,-0.600000,-1.600000,0.600000,-1.596157,0.603843,-1.596157,0.639018,-1.566294,0.711114,-1.511114,0.766294,-1.439018,0.796157,-1.403843,0.796157,-1.400000,0.800000,0.800000,0.800000,0.800000,0.796148,0.800000,0.796148,$1*%
%AMFreePoly1*
4,1,37,1.403843,0.796157,1.439018,0.796157,1.511114,0.766294,1.566294,0.711114,1.596157,0.639018,1.596157,0.603843,1.600000,0.600000,1.600000,-0.600000,1.596157,-0.603843,1.596157,-0.639018,1.566294,-0.711114,1.511114,-0.766294,1.439018,-0.796157,1.403843,-0.796157,1.400000,-0.800000,-0.800000,-0.800000,-0.800000,-0.796148,-0.878414,-0.796148,-1.032228,-0.765552,-1.177117,-0.705537,
-1.307515,-0.618408,-1.418408,-0.507515,-1.505537,-0.377117,-1.565552,-0.232228,-1.596148,-0.078414,-1.596148,0.078414,-1.565552,0.232228,-1.505537,0.377117,-1.418408,0.507515,-1.307515,0.618408,-1.177117,0.705537,-1.032228,0.765552,-0.878414,0.796148,-0.800000,0.796148,-0.800000,0.800000,1.400000,0.800000,1.403843,0.796157,1.403843,0.796157,$1*%
%AMFreePoly2*
4,1,37,1.600000,0.796148,1.678414,0.796148,1.832228,0.765552,1.977117,0.705537,2.107515,0.618408,2.218408,0.507515,2.305537,0.377117,2.365552,0.232228,2.396148,0.078414,2.396148,-0.078414,2.365552,-0.232228,2.305537,-0.377117,2.218408,-0.507515,2.107515,-0.618408,1.977117,-0.705537,1.832228,-0.765552,1.678414,-0.796148,1.600000,-0.796148,1.600000,-0.800000,-0.600000,-0.800000,
-0.603843,-0.796157,-0.639018,-0.796157,-0.711114,-0.766294,-0.766294,-0.711114,-0.796157,-0.639018,-0.796157,-0.603843,-0.800000,-0.600000,-0.800000,0.600000,-0.796157,0.603843,-0.796157,0.639018,-0.766294,0.711114,-0.711114,0.766294,-0.639018,0.796157,-0.603843,0.796157,-0.600000,0.800000,1.600000,0.800000,1.600000,0.796148,1.600000,0.796148,$1*%
G04 Aperture macros list end*
%ADD10R,1.700000X1.700000*%
%ADD11C,1.700000*%
%ADD12C,2.200000*%
%ADD13C,1.850000*%
%ADD14FreePoly0,0.000000*%
%ADD15RoundRect,0.800000X-0.800000X-0.000010X0.800000X-0.000010X0.800000X0.000010X-0.800000X0.000010X0*%
%ADD16FreePoly1,0.000000*%
%ADD17RoundRect,0.800000X0.000010X-0.800000X0.000010X0.800000X-0.000010X0.800000X-0.000010X-0.800000X0*%
%ADD18FreePoly2,270.000000*%
%ADD19C,2.600000*%
%ADD20C,3.800000*%
%ADD21R,2.800000X2.800000*%
%ADD22RoundRect,0.250000X-0.625000X0.350000X-0.625000X-0.350000X0.625000X-0.350000X0.625000X0.350000X0*%
%ADD23O,1.750000X1.200000*%
%ADD24R,2.000000X1.905000*%
%ADD25O,2.000000X1.905000*%
G04 APERTURE END LIST*
D10*
%TO.C,SW1*%
X155000000Y-82000000D03*
D11*
X155000000Y-84540000D03*
X155000000Y-87080000D03*
%TD*%
D12*
%TO.C,A1*%
X137275000Y-64920000D03*
D13*
X137575000Y-67950000D03*
X142425000Y-67950000D03*
D12*
X142725000Y-64920000D03*
D14*
X130310000Y-64790000D03*
D15*
X130310000Y-67330000D03*
D16*
X130310000Y-69870000D03*
D15*
X130310000Y-72410000D03*
X130310000Y-74950000D03*
X130310000Y-77490000D03*
X130310000Y-80030000D03*
D16*
X130310000Y-82570000D03*
D15*
X130310000Y-85110000D03*
X130310000Y-87650000D03*
X130310000Y-90190000D03*
X130310000Y-92730000D03*
D16*
X130310000Y-95270000D03*
D15*
X130310000Y-97810000D03*
X130310000Y-100350000D03*
X130310000Y-102890000D03*
X130310000Y-105430000D03*
D16*
X130310000Y-107970000D03*
D15*
X130310000Y-110510000D03*
X130310000Y-113050000D03*
X149690000Y-113050000D03*
X149690000Y-110510000D03*
D14*
X149690000Y-107970000D03*
D15*
X149690000Y-105430000D03*
X149690000Y-102890000D03*
X149690000Y-100350000D03*
X149690000Y-97810000D03*
D14*
X149690000Y-95270000D03*
D15*
X149690000Y-92730000D03*
X149690000Y-90190000D03*
X149690000Y-87650000D03*
X149690000Y-85110000D03*
D14*
X149690000Y-82570000D03*
D15*
X149690000Y-80030000D03*
X149690000Y-77490000D03*
X149690000Y-74950000D03*
X149690000Y-72410000D03*
D14*
X149690000Y-69870000D03*
D15*
X149690000Y-67330000D03*
X149690000Y-64790000D03*
D17*
X137460000Y-113620000D03*
D18*
X140000000Y-112820000D03*
D17*
X142540000Y-113620000D03*
%TD*%
D19*
%TO.C,M2*%
X156500000Y-141500000D03*
D20*
X156500000Y-141500000D03*
%TD*%
D19*
%TO.C,M2*%
X123000000Y-141500000D03*
D20*
X123000000Y-141500000D03*
%TD*%
D19*
%TO.C,M2*%
X156500000Y-66500000D03*
D20*
X156500000Y-66500000D03*
%TD*%
D21*
%TO.C,J5*%
X132387500Y-142912500D03*
X146587500Y-142912500D03*
X132387500Y-120012500D03*
X146887500Y-120012500D03*
X135887500Y-120012500D03*
X143487500Y-120012500D03*
%TD*%
D19*
%TO.C,M2*%
X123000000Y-66500000D03*
D20*
X123000000Y-66500000D03*
%TD*%
D22*
%TO.C,J4*%
X124950000Y-124000000D03*
D23*
X124950000Y-126000000D03*
%TD*%
D10*
%TO.C,J1*%
X156000000Y-102960000D03*
D11*
X156000000Y-105500000D03*
X156000000Y-108040000D03*
X156000000Y-110580000D03*
%TD*%
D24*
%TO.C,Q1*%
X124000000Y-113580000D03*
D25*
X124000000Y-111040000D03*
X124000000Y-108500000D03*
%TD*%
D10*
%TO.C,J2*%
X123400000Y-80000000D03*
D11*
X123400000Y-82540000D03*
X123400000Y-85080000D03*
X123400000Y-87620000D03*
X123400000Y-90160000D03*
X123400000Y-92700000D03*
%TD*%
D22*
%TO.C,J3*%
X152450000Y-124000000D03*
D23*
X152450000Y-126000000D03*
%TD*%
M02*
