M48
; DRILL file KiCad 10.0.1 date 2026-05-13T16:15:59
; FORMAT={-:-/ absolute / metric / decimal}
; #@! TF.CreationDate,2026-05-13T16:15:59+02:00
; #@! TF.GenerationSoftware,Kicad,Pcbnew,10.0.1
; #@! TF.FileFunction,Plated,1,2,PTH
FMAT,2
METRIC
; #@! TA.AperFunction,Plated,PTH,ViaDrill
T1C0.400
; #@! TA.AperFunction,Plated,PTH,ComponentDrill
T2C0.750
; #@! TA.AperFunction,Plated,PTH,ComponentDrill
T3C1.000
; #@! TA.AperFunction,Plated,PTH,ComponentDrill
T4C1.100
; #@! TA.AperFunction,Plated,PTH,ComponentDrill
T5C1.540
; #@! TA.AperFunction,Plated,PTH,ComponentDrill
T6C2.200
%
G90
G05
T1
X126.5Y-65.0
X126.5Y-67.5
X126.5Y-78.5
X126.5Y-81.5
X133.5Y-77.0
X136.5Y-95.0
X137.5Y-102.5
X143.5Y-106.0
X143.5Y-109.5
X146.0Y-69.0
X146.0Y-77.0
X146.0Y-102.96
T2
X124.95Y-124.0
X124.95Y-126.0
X152.45Y-124.0
X152.45Y-126.0
T3
X123.4Y-80.0
X123.4Y-82.54
X123.4Y-85.08
X123.4Y-87.62
X123.4Y-90.16
X123.4Y-92.7
X155.0Y-82.0
X155.0Y-84.54
X155.0Y-87.08
X156.0Y-102.96
X156.0Y-105.5
X156.0Y-108.04
X156.0Y-110.58
T4
X124.0Y-108.5
X124.0Y-111.04
X124.0Y-113.58
T5
X132.387Y-120.012
X132.387Y-142.912
X135.887Y-120.012
X143.487Y-120.012
X146.588Y-142.912
X146.887Y-120.012
T6
X123.0Y-66.5
X123.0Y-141.5
X156.5Y-66.5
X156.5Y-141.5
M30
