%TF.GenerationSoftware,KiCad,Pcbnew,10.0.1*%
%TF.CreationDate,2026-05-13T16:16:34+02:00*%
%TF.ProjectId,BiStage_Avio,42695374-6167-4655-9f41-76696f2e6b69,rev?*%
%TF.SameCoordinates,Original*%
%TF.FileFunction,Legend,Top*%
%TF.FilePolarity,Positive*%
%FSLAX46Y46*%
G04 Gerber Fmt 4.6, Leading zero omitted, Abs format (unit mm)*
G04 Created by KiCad (PCBNEW 10.0.1) date 2026-05-13 16:16:34*
%MOMM*%
%LPD*%
G01*
G04 APERTURE LIST*
%ADD10C,0.300000*%
%ADD11C,0.150000*%
%ADD12C,0.120000*%
G04 APERTURE END LIST*
D10*
X153840225Y-77300828D02*
X154125939Y-77300828D01*
X154125939Y-77300828D02*
X154268796Y-77372257D01*
X154268796Y-77372257D02*
X154411653Y-77515114D01*
X154411653Y-77515114D02*
X154483082Y-77800828D01*
X154483082Y-77800828D02*
X154483082Y-78300828D01*
X154483082Y-78300828D02*
X154411653Y-78586542D01*
X154411653Y-78586542D02*
X154268796Y-78729400D01*
X154268796Y-78729400D02*
X154125939Y-78800828D01*
X154125939Y-78800828D02*
X153840225Y-78800828D01*
X153840225Y-78800828D02*
X153697368Y-78729400D01*
X153697368Y-78729400D02*
X153554510Y-78586542D01*
X153554510Y-78586542D02*
X153483082Y-78300828D01*
X153483082Y-78300828D02*
X153483082Y-77800828D01*
X153483082Y-77800828D02*
X153554510Y-77515114D01*
X153554510Y-77515114D02*
X153697368Y-77372257D01*
X153697368Y-77372257D02*
X153840225Y-77300828D01*
X155625939Y-78015114D02*
X155125939Y-78015114D01*
X155125939Y-78800828D02*
X155125939Y-77300828D01*
X155125939Y-77300828D02*
X155840225Y-77300828D01*
X156911653Y-78015114D02*
X156411653Y-78015114D01*
X156411653Y-78800828D02*
X156411653Y-77300828D01*
X156411653Y-77300828D02*
X157125939Y-77300828D01*
X154340225Y-90300828D02*
X154625939Y-90300828D01*
X154625939Y-90300828D02*
X154768796Y-90372257D01*
X154768796Y-90372257D02*
X154911653Y-90515114D01*
X154911653Y-90515114D02*
X154983082Y-90800828D01*
X154983082Y-90800828D02*
X154983082Y-91300828D01*
X154983082Y-91300828D02*
X154911653Y-91586542D01*
X154911653Y-91586542D02*
X154768796Y-91729400D01*
X154768796Y-91729400D02*
X154625939Y-91800828D01*
X154625939Y-91800828D02*
X154340225Y-91800828D01*
X154340225Y-91800828D02*
X154197368Y-91729400D01*
X154197368Y-91729400D02*
X154054510Y-91586542D01*
X154054510Y-91586542D02*
X153983082Y-91300828D01*
X153983082Y-91300828D02*
X153983082Y-90800828D01*
X153983082Y-90800828D02*
X154054510Y-90515114D01*
X154054510Y-90515114D02*
X154197368Y-90372257D01*
X154197368Y-90372257D02*
X154340225Y-90300828D01*
X155625939Y-91800828D02*
X155625939Y-90300828D01*
X155625939Y-90300828D02*
X156483082Y-91800828D01*
X156483082Y-91800828D02*
X156483082Y-90300828D01*
D11*
X158407200Y-86999999D02*
X158454819Y-86857142D01*
X158454819Y-86857142D02*
X158454819Y-86619047D01*
X158454819Y-86619047D02*
X158407200Y-86523809D01*
X158407200Y-86523809D02*
X158359580Y-86476190D01*
X158359580Y-86476190D02*
X158264342Y-86428571D01*
X158264342Y-86428571D02*
X158169104Y-86428571D01*
X158169104Y-86428571D02*
X158073866Y-86476190D01*
X158073866Y-86476190D02*
X158026247Y-86523809D01*
X158026247Y-86523809D02*
X157978628Y-86619047D01*
X157978628Y-86619047D02*
X157931009Y-86809523D01*
X157931009Y-86809523D02*
X157883390Y-86904761D01*
X157883390Y-86904761D02*
X157835771Y-86952380D01*
X157835771Y-86952380D02*
X157740533Y-86999999D01*
X157740533Y-86999999D02*
X157645295Y-86999999D01*
X157645295Y-86999999D02*
X157550057Y-86952380D01*
X157550057Y-86952380D02*
X157502438Y-86904761D01*
X157502438Y-86904761D02*
X157454819Y-86809523D01*
X157454819Y-86809523D02*
X157454819Y-86571428D01*
X157454819Y-86571428D02*
X157502438Y-86428571D01*
X157454819Y-86095237D02*
X158454819Y-85857142D01*
X158454819Y-85857142D02*
X157740533Y-85666666D01*
X157740533Y-85666666D02*
X158454819Y-85476190D01*
X158454819Y-85476190D02*
X157454819Y-85238095D01*
X158454819Y-84857142D02*
X157454819Y-84857142D01*
X157454819Y-84523809D02*
X157454819Y-83952381D01*
X158454819Y-84238095D02*
X157454819Y-84238095D01*
X158359580Y-83047619D02*
X158407200Y-83095238D01*
X158407200Y-83095238D02*
X158454819Y-83238095D01*
X158454819Y-83238095D02*
X158454819Y-83333333D01*
X158454819Y-83333333D02*
X158407200Y-83476190D01*
X158407200Y-83476190D02*
X158311961Y-83571428D01*
X158311961Y-83571428D02*
X158216723Y-83619047D01*
X158216723Y-83619047D02*
X158026247Y-83666666D01*
X158026247Y-83666666D02*
X157883390Y-83666666D01*
X157883390Y-83666666D02*
X157692914Y-83619047D01*
X157692914Y-83619047D02*
X157597676Y-83571428D01*
X157597676Y-83571428D02*
X157502438Y-83476190D01*
X157502438Y-83476190D02*
X157454819Y-83333333D01*
X157454819Y-83333333D02*
X157454819Y-83238095D01*
X157454819Y-83238095D02*
X157502438Y-83095238D01*
X157502438Y-83095238D02*
X157550057Y-83047619D01*
X158454819Y-82619047D02*
X157454819Y-82619047D01*
X157931009Y-82619047D02*
X157931009Y-82047619D01*
X158454819Y-82047619D02*
X157454819Y-82047619D01*
X134880951Y-98454819D02*
X134547618Y-97978628D01*
X134309523Y-98454819D02*
X134309523Y-97454819D01*
X134309523Y-97454819D02*
X134690475Y-97454819D01*
X134690475Y-97454819D02*
X134785713Y-97502438D01*
X134785713Y-97502438D02*
X134833332Y-97550057D01*
X134833332Y-97550057D02*
X134880951Y-97645295D01*
X134880951Y-97645295D02*
X134880951Y-97788152D01*
X134880951Y-97788152D02*
X134833332Y-97883390D01*
X134833332Y-97883390D02*
X134785713Y-97931009D01*
X134785713Y-97931009D02*
X134690475Y-97978628D01*
X134690475Y-97978628D02*
X134309523Y-97978628D01*
X135738094Y-98454819D02*
X135738094Y-97931009D01*
X135738094Y-97931009D02*
X135690475Y-97835771D01*
X135690475Y-97835771D02*
X135595237Y-97788152D01*
X135595237Y-97788152D02*
X135404761Y-97788152D01*
X135404761Y-97788152D02*
X135309523Y-97835771D01*
X135738094Y-98407200D02*
X135642856Y-98454819D01*
X135642856Y-98454819D02*
X135404761Y-98454819D01*
X135404761Y-98454819D02*
X135309523Y-98407200D01*
X135309523Y-98407200D02*
X135261904Y-98311961D01*
X135261904Y-98311961D02*
X135261904Y-98216723D01*
X135261904Y-98216723D02*
X135309523Y-98121485D01*
X135309523Y-98121485D02*
X135404761Y-98073866D01*
X135404761Y-98073866D02*
X135642856Y-98073866D01*
X135642856Y-98073866D02*
X135738094Y-98026247D01*
X136166666Y-98407200D02*
X136261904Y-98454819D01*
X136261904Y-98454819D02*
X136452380Y-98454819D01*
X136452380Y-98454819D02*
X136547618Y-98407200D01*
X136547618Y-98407200D02*
X136595237Y-98311961D01*
X136595237Y-98311961D02*
X136595237Y-98264342D01*
X136595237Y-98264342D02*
X136547618Y-98169104D01*
X136547618Y-98169104D02*
X136452380Y-98121485D01*
X136452380Y-98121485D02*
X136309523Y-98121485D01*
X136309523Y-98121485D02*
X136214285Y-98073866D01*
X136214285Y-98073866D02*
X136166666Y-97978628D01*
X136166666Y-97978628D02*
X136166666Y-97931009D01*
X136166666Y-97931009D02*
X136214285Y-97835771D01*
X136214285Y-97835771D02*
X136309523Y-97788152D01*
X136309523Y-97788152D02*
X136452380Y-97788152D01*
X136452380Y-97788152D02*
X136547618Y-97835771D01*
X137023809Y-97788152D02*
X137023809Y-98788152D01*
X137023809Y-97835771D02*
X137119047Y-97788152D01*
X137119047Y-97788152D02*
X137309523Y-97788152D01*
X137309523Y-97788152D02*
X137404761Y-97835771D01*
X137404761Y-97835771D02*
X137452380Y-97883390D01*
X137452380Y-97883390D02*
X137499999Y-97978628D01*
X137499999Y-97978628D02*
X137499999Y-98264342D01*
X137499999Y-98264342D02*
X137452380Y-98359580D01*
X137452380Y-98359580D02*
X137404761Y-98407200D01*
X137404761Y-98407200D02*
X137309523Y-98454819D01*
X137309523Y-98454819D02*
X137119047Y-98454819D01*
X137119047Y-98454819D02*
X137023809Y-98407200D01*
X137928571Y-98454819D02*
X137928571Y-97454819D01*
X137928571Y-97835771D02*
X138023809Y-97788152D01*
X138023809Y-97788152D02*
X138214285Y-97788152D01*
X138214285Y-97788152D02*
X138309523Y-97835771D01*
X138309523Y-97835771D02*
X138357142Y-97883390D01*
X138357142Y-97883390D02*
X138404761Y-97978628D01*
X138404761Y-97978628D02*
X138404761Y-98264342D01*
X138404761Y-98264342D02*
X138357142Y-98359580D01*
X138357142Y-98359580D02*
X138309523Y-98407200D01*
X138309523Y-98407200D02*
X138214285Y-98454819D01*
X138214285Y-98454819D02*
X138023809Y-98454819D01*
X138023809Y-98454819D02*
X137928571Y-98407200D01*
X139214285Y-98407200D02*
X139119047Y-98454819D01*
X139119047Y-98454819D02*
X138928571Y-98454819D01*
X138928571Y-98454819D02*
X138833333Y-98407200D01*
X138833333Y-98407200D02*
X138785714Y-98311961D01*
X138785714Y-98311961D02*
X138785714Y-97931009D01*
X138785714Y-97931009D02*
X138833333Y-97835771D01*
X138833333Y-97835771D02*
X138928571Y-97788152D01*
X138928571Y-97788152D02*
X139119047Y-97788152D01*
X139119047Y-97788152D02*
X139214285Y-97835771D01*
X139214285Y-97835771D02*
X139261904Y-97931009D01*
X139261904Y-97931009D02*
X139261904Y-98026247D01*
X139261904Y-98026247D02*
X138785714Y-98121485D01*
X139690476Y-98454819D02*
X139690476Y-97788152D01*
X139690476Y-97978628D02*
X139738095Y-97883390D01*
X139738095Y-97883390D02*
X139785714Y-97835771D01*
X139785714Y-97835771D02*
X139880952Y-97788152D01*
X139880952Y-97788152D02*
X139976190Y-97788152D01*
X140309524Y-98454819D02*
X140309524Y-97788152D01*
X140309524Y-97978628D02*
X140357143Y-97883390D01*
X140357143Y-97883390D02*
X140404762Y-97835771D01*
X140404762Y-97835771D02*
X140500000Y-97788152D01*
X140500000Y-97788152D02*
X140595238Y-97788152D01*
X140833334Y-97788152D02*
X141071429Y-98454819D01*
X141309524Y-97788152D02*
X141071429Y-98454819D01*
X141071429Y-98454819D02*
X140976191Y-98692914D01*
X140976191Y-98692914D02*
X140928572Y-98740533D01*
X140928572Y-98740533D02*
X140833334Y-98788152D01*
X141690477Y-98454819D02*
X141690477Y-97454819D01*
X141690477Y-97454819D02*
X142071429Y-97454819D01*
X142071429Y-97454819D02*
X142166667Y-97502438D01*
X142166667Y-97502438D02*
X142214286Y-97550057D01*
X142214286Y-97550057D02*
X142261905Y-97645295D01*
X142261905Y-97645295D02*
X142261905Y-97788152D01*
X142261905Y-97788152D02*
X142214286Y-97883390D01*
X142214286Y-97883390D02*
X142166667Y-97931009D01*
X142166667Y-97931009D02*
X142071429Y-97978628D01*
X142071429Y-97978628D02*
X141690477Y-97978628D01*
X142690477Y-98454819D02*
X142690477Y-97788152D01*
X142690477Y-97454819D02*
X142642858Y-97502438D01*
X142642858Y-97502438D02*
X142690477Y-97550057D01*
X142690477Y-97550057D02*
X142738096Y-97502438D01*
X142738096Y-97502438D02*
X142690477Y-97454819D01*
X142690477Y-97454819D02*
X142690477Y-97550057D01*
X142928572Y-98550057D02*
X143690476Y-98550057D01*
X143928572Y-98454819D02*
X143928572Y-97454819D01*
X143928572Y-97454819D02*
X144309524Y-97454819D01*
X144309524Y-97454819D02*
X144404762Y-97502438D01*
X144404762Y-97502438D02*
X144452381Y-97550057D01*
X144452381Y-97550057D02*
X144500000Y-97645295D01*
X144500000Y-97645295D02*
X144500000Y-97788152D01*
X144500000Y-97788152D02*
X144452381Y-97883390D01*
X144452381Y-97883390D02*
X144404762Y-97931009D01*
X144404762Y-97931009D02*
X144309524Y-97978628D01*
X144309524Y-97978628D02*
X143928572Y-97978628D01*
X144928572Y-98454819D02*
X144928572Y-97788152D01*
X144928572Y-97454819D02*
X144880953Y-97502438D01*
X144880953Y-97502438D02*
X144928572Y-97550057D01*
X144928572Y-97550057D02*
X144976191Y-97502438D01*
X144976191Y-97502438D02*
X144928572Y-97454819D01*
X144928572Y-97454819D02*
X144928572Y-97550057D01*
X145833333Y-98407200D02*
X145738095Y-98454819D01*
X145738095Y-98454819D02*
X145547619Y-98454819D01*
X145547619Y-98454819D02*
X145452381Y-98407200D01*
X145452381Y-98407200D02*
X145404762Y-98359580D01*
X145404762Y-98359580D02*
X145357143Y-98264342D01*
X145357143Y-98264342D02*
X145357143Y-97978628D01*
X145357143Y-97978628D02*
X145404762Y-97883390D01*
X145404762Y-97883390D02*
X145452381Y-97835771D01*
X145452381Y-97835771D02*
X145547619Y-97788152D01*
X145547619Y-97788152D02*
X145738095Y-97788152D01*
X145738095Y-97788152D02*
X145833333Y-97835771D01*
X146404762Y-98454819D02*
X146309524Y-98407200D01*
X146309524Y-98407200D02*
X146261905Y-98359580D01*
X146261905Y-98359580D02*
X146214286Y-98264342D01*
X146214286Y-98264342D02*
X146214286Y-97978628D01*
X146214286Y-97978628D02*
X146261905Y-97883390D01*
X146261905Y-97883390D02*
X146309524Y-97835771D01*
X146309524Y-97835771D02*
X146404762Y-97788152D01*
X146404762Y-97788152D02*
X146547619Y-97788152D01*
X146547619Y-97788152D02*
X146642857Y-97835771D01*
X146642857Y-97835771D02*
X146690476Y-97883390D01*
X146690476Y-97883390D02*
X146738095Y-97978628D01*
X146738095Y-97978628D02*
X146738095Y-98264342D01*
X146738095Y-98264342D02*
X146690476Y-98359580D01*
X146690476Y-98359580D02*
X146642857Y-98407200D01*
X146642857Y-98407200D02*
X146547619Y-98454819D01*
X146547619Y-98454819D02*
X146404762Y-98454819D01*
X155690476Y-139104819D02*
X155690476Y-138104819D01*
X155690476Y-138104819D02*
X156023809Y-138819104D01*
X156023809Y-138819104D02*
X156357142Y-138104819D01*
X156357142Y-138104819D02*
X156357142Y-139104819D01*
X156785714Y-138200057D02*
X156833333Y-138152438D01*
X156833333Y-138152438D02*
X156928571Y-138104819D01*
X156928571Y-138104819D02*
X157166666Y-138104819D01*
X157166666Y-138104819D02*
X157261904Y-138152438D01*
X157261904Y-138152438D02*
X157309523Y-138200057D01*
X157309523Y-138200057D02*
X157357142Y-138295295D01*
X157357142Y-138295295D02*
X157357142Y-138390533D01*
X157357142Y-138390533D02*
X157309523Y-138533390D01*
X157309523Y-138533390D02*
X156738095Y-139104819D01*
X156738095Y-139104819D02*
X157357142Y-139104819D01*
X122190476Y-139104819D02*
X122190476Y-138104819D01*
X122190476Y-138104819D02*
X122523809Y-138819104D01*
X122523809Y-138819104D02*
X122857142Y-138104819D01*
X122857142Y-138104819D02*
X122857142Y-139104819D01*
X123285714Y-138200057D02*
X123333333Y-138152438D01*
X123333333Y-138152438D02*
X123428571Y-138104819D01*
X123428571Y-138104819D02*
X123666666Y-138104819D01*
X123666666Y-138104819D02*
X123761904Y-138152438D01*
X123761904Y-138152438D02*
X123809523Y-138200057D01*
X123809523Y-138200057D02*
X123857142Y-138295295D01*
X123857142Y-138295295D02*
X123857142Y-138390533D01*
X123857142Y-138390533D02*
X123809523Y-138533390D01*
X123809523Y-138533390D02*
X123238095Y-139104819D01*
X123238095Y-139104819D02*
X123857142Y-139104819D01*
X155690476Y-69954819D02*
X155690476Y-68954819D01*
X155690476Y-68954819D02*
X156023809Y-69669104D01*
X156023809Y-69669104D02*
X156357142Y-68954819D01*
X156357142Y-68954819D02*
X156357142Y-69954819D01*
X156785714Y-69050057D02*
X156833333Y-69002438D01*
X156833333Y-69002438D02*
X156928571Y-68954819D01*
X156928571Y-68954819D02*
X157166666Y-68954819D01*
X157166666Y-68954819D02*
X157261904Y-69002438D01*
X157261904Y-69002438D02*
X157309523Y-69050057D01*
X157309523Y-69050057D02*
X157357142Y-69145295D01*
X157357142Y-69145295D02*
X157357142Y-69240533D01*
X157357142Y-69240533D02*
X157309523Y-69383390D01*
X157309523Y-69383390D02*
X156738095Y-69954819D01*
X156738095Y-69954819D02*
X157357142Y-69954819D01*
X141354819Y-131483333D02*
X142069104Y-131483333D01*
X142069104Y-131483333D02*
X142211961Y-131530952D01*
X142211961Y-131530952D02*
X142307200Y-131626190D01*
X142307200Y-131626190D02*
X142354819Y-131769047D01*
X142354819Y-131769047D02*
X142354819Y-131864285D01*
X141354819Y-130530952D02*
X141354819Y-131007142D01*
X141354819Y-131007142D02*
X141831009Y-131054761D01*
X141831009Y-131054761D02*
X141783390Y-131007142D01*
X141783390Y-131007142D02*
X141735771Y-130911904D01*
X141735771Y-130911904D02*
X141735771Y-130673809D01*
X141735771Y-130673809D02*
X141783390Y-130578571D01*
X141783390Y-130578571D02*
X141831009Y-130530952D01*
X141831009Y-130530952D02*
X141926247Y-130483333D01*
X141926247Y-130483333D02*
X142164342Y-130483333D01*
X142164342Y-130483333D02*
X142259580Y-130530952D01*
X142259580Y-130530952D02*
X142307200Y-130578571D01*
X142307200Y-130578571D02*
X142354819Y-130673809D01*
X142354819Y-130673809D02*
X142354819Y-130911904D01*
X142354819Y-130911904D02*
X142307200Y-131007142D01*
X142307200Y-131007142D02*
X142259580Y-131054761D01*
X135854819Y-135221428D02*
X135854819Y-134650000D01*
X136854819Y-134935714D02*
X135854819Y-134935714D01*
X136854819Y-134316666D02*
X135854819Y-134316666D01*
X135854819Y-134316666D02*
X135854819Y-133935714D01*
X135854819Y-133935714D02*
X135902438Y-133840476D01*
X135902438Y-133840476D02*
X135950057Y-133792857D01*
X135950057Y-133792857D02*
X136045295Y-133745238D01*
X136045295Y-133745238D02*
X136188152Y-133745238D01*
X136188152Y-133745238D02*
X136283390Y-133792857D01*
X136283390Y-133792857D02*
X136331009Y-133840476D01*
X136331009Y-133840476D02*
X136378628Y-133935714D01*
X136378628Y-133935714D02*
X136378628Y-134316666D01*
X136188152Y-132888095D02*
X136854819Y-132888095D01*
X135807200Y-133126190D02*
X136521485Y-133364285D01*
X136521485Y-133364285D02*
X136521485Y-132745238D01*
X135854819Y-132173809D02*
X135854819Y-132078571D01*
X135854819Y-132078571D02*
X135902438Y-131983333D01*
X135902438Y-131983333D02*
X135950057Y-131935714D01*
X135950057Y-131935714D02*
X136045295Y-131888095D01*
X136045295Y-131888095D02*
X136235771Y-131840476D01*
X136235771Y-131840476D02*
X136473866Y-131840476D01*
X136473866Y-131840476D02*
X136664342Y-131888095D01*
X136664342Y-131888095D02*
X136759580Y-131935714D01*
X136759580Y-131935714D02*
X136807200Y-131983333D01*
X136807200Y-131983333D02*
X136854819Y-132078571D01*
X136854819Y-132078571D02*
X136854819Y-132173809D01*
X136854819Y-132173809D02*
X136807200Y-132269047D01*
X136807200Y-132269047D02*
X136759580Y-132316666D01*
X136759580Y-132316666D02*
X136664342Y-132364285D01*
X136664342Y-132364285D02*
X136473866Y-132411904D01*
X136473866Y-132411904D02*
X136235771Y-132411904D01*
X136235771Y-132411904D02*
X136045295Y-132364285D01*
X136045295Y-132364285D02*
X135950057Y-132316666D01*
X135950057Y-132316666D02*
X135902438Y-132269047D01*
X135902438Y-132269047D02*
X135854819Y-132173809D01*
X135854819Y-130935714D02*
X135854819Y-131411904D01*
X135854819Y-131411904D02*
X136331009Y-131459523D01*
X136331009Y-131459523D02*
X136283390Y-131411904D01*
X136283390Y-131411904D02*
X136235771Y-131316666D01*
X136235771Y-131316666D02*
X136235771Y-131078571D01*
X136235771Y-131078571D02*
X136283390Y-130983333D01*
X136283390Y-130983333D02*
X136331009Y-130935714D01*
X136331009Y-130935714D02*
X136426247Y-130888095D01*
X136426247Y-130888095D02*
X136664342Y-130888095D01*
X136664342Y-130888095D02*
X136759580Y-130935714D01*
X136759580Y-130935714D02*
X136807200Y-130983333D01*
X136807200Y-130983333D02*
X136854819Y-131078571D01*
X136854819Y-131078571D02*
X136854819Y-131316666D01*
X136854819Y-131316666D02*
X136807200Y-131411904D01*
X136807200Y-131411904D02*
X136759580Y-131459523D01*
X135854819Y-130030952D02*
X135854819Y-130221428D01*
X135854819Y-130221428D02*
X135902438Y-130316666D01*
X135902438Y-130316666D02*
X135950057Y-130364285D01*
X135950057Y-130364285D02*
X136092914Y-130459523D01*
X136092914Y-130459523D02*
X136283390Y-130507142D01*
X136283390Y-130507142D02*
X136664342Y-130507142D01*
X136664342Y-130507142D02*
X136759580Y-130459523D01*
X136759580Y-130459523D02*
X136807200Y-130411904D01*
X136807200Y-130411904D02*
X136854819Y-130316666D01*
X136854819Y-130316666D02*
X136854819Y-130126190D01*
X136854819Y-130126190D02*
X136807200Y-130030952D01*
X136807200Y-130030952D02*
X136759580Y-129983333D01*
X136759580Y-129983333D02*
X136664342Y-129935714D01*
X136664342Y-129935714D02*
X136426247Y-129935714D01*
X136426247Y-129935714D02*
X136331009Y-129983333D01*
X136331009Y-129983333D02*
X136283390Y-130030952D01*
X136283390Y-130030952D02*
X136235771Y-130126190D01*
X136235771Y-130126190D02*
X136235771Y-130316666D01*
X136235771Y-130316666D02*
X136283390Y-130411904D01*
X136283390Y-130411904D02*
X136331009Y-130459523D01*
X136331009Y-130459523D02*
X136426247Y-130507142D01*
X136950057Y-129745238D02*
X136950057Y-128983333D01*
X136854819Y-128745237D02*
X135854819Y-128745237D01*
X135854819Y-128745237D02*
X135854819Y-128364285D01*
X135854819Y-128364285D02*
X135902438Y-128269047D01*
X135902438Y-128269047D02*
X135950057Y-128221428D01*
X135950057Y-128221428D02*
X136045295Y-128173809D01*
X136045295Y-128173809D02*
X136188152Y-128173809D01*
X136188152Y-128173809D02*
X136283390Y-128221428D01*
X136283390Y-128221428D02*
X136331009Y-128269047D01*
X136331009Y-128269047D02*
X136378628Y-128364285D01*
X136378628Y-128364285D02*
X136378628Y-128745237D01*
X136331009Y-127411904D02*
X136378628Y-127269047D01*
X136378628Y-127269047D02*
X136426247Y-127221428D01*
X136426247Y-127221428D02*
X136521485Y-127173809D01*
X136521485Y-127173809D02*
X136664342Y-127173809D01*
X136664342Y-127173809D02*
X136759580Y-127221428D01*
X136759580Y-127221428D02*
X136807200Y-127269047D01*
X136807200Y-127269047D02*
X136854819Y-127364285D01*
X136854819Y-127364285D02*
X136854819Y-127745237D01*
X136854819Y-127745237D02*
X135854819Y-127745237D01*
X135854819Y-127745237D02*
X135854819Y-127411904D01*
X135854819Y-127411904D02*
X135902438Y-127316666D01*
X135902438Y-127316666D02*
X135950057Y-127269047D01*
X135950057Y-127269047D02*
X136045295Y-127221428D01*
X136045295Y-127221428D02*
X136140533Y-127221428D01*
X136140533Y-127221428D02*
X136235771Y-127269047D01*
X136235771Y-127269047D02*
X136283390Y-127316666D01*
X136283390Y-127316666D02*
X136331009Y-127411904D01*
X136331009Y-127411904D02*
X136331009Y-127745237D01*
X131742319Y-125164880D02*
X131742319Y-124974404D01*
X131742319Y-124974404D02*
X131789938Y-124879166D01*
X131789938Y-124879166D02*
X131885176Y-124783928D01*
X131885176Y-124783928D02*
X132075652Y-124736309D01*
X132075652Y-124736309D02*
X132408985Y-124736309D01*
X132408985Y-124736309D02*
X132599461Y-124783928D01*
X132599461Y-124783928D02*
X132694700Y-124879166D01*
X132694700Y-124879166D02*
X132742319Y-124974404D01*
X132742319Y-124974404D02*
X132742319Y-125164880D01*
X132742319Y-125164880D02*
X132694700Y-125260118D01*
X132694700Y-125260118D02*
X132599461Y-125355356D01*
X132599461Y-125355356D02*
X132408985Y-125402975D01*
X132408985Y-125402975D02*
X132075652Y-125402975D01*
X132075652Y-125402975D02*
X131885176Y-125355356D01*
X131885176Y-125355356D02*
X131789938Y-125260118D01*
X131789938Y-125260118D02*
X131742319Y-125164880D01*
X132075652Y-123879166D02*
X132742319Y-123879166D01*
X132075652Y-124307737D02*
X132599461Y-124307737D01*
X132599461Y-124307737D02*
X132694700Y-124260118D01*
X132694700Y-124260118D02*
X132742319Y-124164880D01*
X132742319Y-124164880D02*
X132742319Y-124022023D01*
X132742319Y-124022023D02*
X132694700Y-123926785D01*
X132694700Y-123926785D02*
X132647080Y-123879166D01*
X132075652Y-123545832D02*
X132075652Y-123164880D01*
X131742319Y-123402975D02*
X132599461Y-123402975D01*
X132599461Y-123402975D02*
X132694700Y-123355356D01*
X132694700Y-123355356D02*
X132742319Y-123260118D01*
X132742319Y-123260118D02*
X132742319Y-123164880D01*
X132361366Y-122831546D02*
X132361366Y-122069642D01*
X132742319Y-122450594D02*
X131980414Y-122450594D01*
X132361366Y-141093451D02*
X132361366Y-140331547D01*
X132742319Y-140712499D02*
X131980414Y-140712499D01*
X134242319Y-143055357D02*
X134242319Y-143531547D01*
X134242319Y-143531547D02*
X134718509Y-143579166D01*
X134718509Y-143579166D02*
X134670890Y-143531547D01*
X134670890Y-143531547D02*
X134623271Y-143436309D01*
X134623271Y-143436309D02*
X134623271Y-143198214D01*
X134623271Y-143198214D02*
X134670890Y-143102976D01*
X134670890Y-143102976D02*
X134718509Y-143055357D01*
X134718509Y-143055357D02*
X134813747Y-143007738D01*
X134813747Y-143007738D02*
X135051842Y-143007738D01*
X135051842Y-143007738D02*
X135147080Y-143055357D01*
X135147080Y-143055357D02*
X135194700Y-143102976D01*
X135194700Y-143102976D02*
X135242319Y-143198214D01*
X135242319Y-143198214D02*
X135242319Y-143436309D01*
X135242319Y-143436309D02*
X135194700Y-143531547D01*
X135194700Y-143531547D02*
X135147080Y-143579166D01*
X134575652Y-142674404D02*
X135242319Y-142436309D01*
X135242319Y-142436309D02*
X134575652Y-142198214D01*
X135718509Y-123460118D02*
X135766128Y-123317261D01*
X135766128Y-123317261D02*
X135813747Y-123269642D01*
X135813747Y-123269642D02*
X135908985Y-123222023D01*
X135908985Y-123222023D02*
X136051842Y-123222023D01*
X136051842Y-123222023D02*
X136147080Y-123269642D01*
X136147080Y-123269642D02*
X136194700Y-123317261D01*
X136194700Y-123317261D02*
X136242319Y-123412499D01*
X136242319Y-123412499D02*
X136242319Y-123793451D01*
X136242319Y-123793451D02*
X135242319Y-123793451D01*
X135242319Y-123793451D02*
X135242319Y-123460118D01*
X135242319Y-123460118D02*
X135289938Y-123364880D01*
X135289938Y-123364880D02*
X135337557Y-123317261D01*
X135337557Y-123317261D02*
X135432795Y-123269642D01*
X135432795Y-123269642D02*
X135528033Y-123269642D01*
X135528033Y-123269642D02*
X135623271Y-123317261D01*
X135623271Y-123317261D02*
X135670890Y-123364880D01*
X135670890Y-123364880D02*
X135718509Y-123460118D01*
X135718509Y-123460118D02*
X135718509Y-123793451D01*
X135861366Y-122793451D02*
X135861366Y-122031547D01*
X136242319Y-122412499D02*
X135480414Y-122412499D01*
X139518509Y-138555358D02*
X139566128Y-138412501D01*
X139566128Y-138412501D02*
X139613747Y-138364882D01*
X139613747Y-138364882D02*
X139708985Y-138317263D01*
X139708985Y-138317263D02*
X139851842Y-138317263D01*
X139851842Y-138317263D02*
X139947080Y-138364882D01*
X139947080Y-138364882D02*
X139994700Y-138412501D01*
X139994700Y-138412501D02*
X140042319Y-138507739D01*
X140042319Y-138507739D02*
X140042319Y-138888691D01*
X140042319Y-138888691D02*
X139042319Y-138888691D01*
X139042319Y-138888691D02*
X139042319Y-138555358D01*
X139042319Y-138555358D02*
X139089938Y-138460120D01*
X139089938Y-138460120D02*
X139137557Y-138412501D01*
X139137557Y-138412501D02*
X139232795Y-138364882D01*
X139232795Y-138364882D02*
X139328033Y-138364882D01*
X139328033Y-138364882D02*
X139423271Y-138412501D01*
X139423271Y-138412501D02*
X139470890Y-138460120D01*
X139470890Y-138460120D02*
X139518509Y-138555358D01*
X139518509Y-138555358D02*
X139518509Y-138888691D01*
X140042319Y-137460120D02*
X139518509Y-137460120D01*
X139518509Y-137460120D02*
X139423271Y-137507739D01*
X139423271Y-137507739D02*
X139375652Y-137602977D01*
X139375652Y-137602977D02*
X139375652Y-137793453D01*
X139375652Y-137793453D02*
X139423271Y-137888691D01*
X139994700Y-137460120D02*
X140042319Y-137555358D01*
X140042319Y-137555358D02*
X140042319Y-137793453D01*
X140042319Y-137793453D02*
X139994700Y-137888691D01*
X139994700Y-137888691D02*
X139899461Y-137936310D01*
X139899461Y-137936310D02*
X139804223Y-137936310D01*
X139804223Y-137936310D02*
X139708985Y-137888691D01*
X139708985Y-137888691D02*
X139661366Y-137793453D01*
X139661366Y-137793453D02*
X139661366Y-137555358D01*
X139661366Y-137555358D02*
X139613747Y-137460120D01*
X139375652Y-137126786D02*
X139375652Y-136745834D01*
X139042319Y-136983929D02*
X139899461Y-136983929D01*
X139899461Y-136983929D02*
X139994700Y-136936310D01*
X139994700Y-136936310D02*
X140042319Y-136841072D01*
X140042319Y-136841072D02*
X140042319Y-136745834D01*
X139375652Y-136555357D02*
X139375652Y-136174405D01*
X139042319Y-136412500D02*
X139899461Y-136412500D01*
X139899461Y-136412500D02*
X139994700Y-136364881D01*
X139994700Y-136364881D02*
X140042319Y-136269643D01*
X140042319Y-136269643D02*
X140042319Y-136174405D01*
X139994700Y-135460119D02*
X140042319Y-135555357D01*
X140042319Y-135555357D02*
X140042319Y-135745833D01*
X140042319Y-135745833D02*
X139994700Y-135841071D01*
X139994700Y-135841071D02*
X139899461Y-135888690D01*
X139899461Y-135888690D02*
X139518509Y-135888690D01*
X139518509Y-135888690D02*
X139423271Y-135841071D01*
X139423271Y-135841071D02*
X139375652Y-135745833D01*
X139375652Y-135745833D02*
X139375652Y-135555357D01*
X139375652Y-135555357D02*
X139423271Y-135460119D01*
X139423271Y-135460119D02*
X139518509Y-135412500D01*
X139518509Y-135412500D02*
X139613747Y-135412500D01*
X139613747Y-135412500D02*
X139708985Y-135888690D01*
X140042319Y-134983928D02*
X139375652Y-134983928D01*
X139566128Y-134983928D02*
X139470890Y-134936309D01*
X139470890Y-134936309D02*
X139423271Y-134888690D01*
X139423271Y-134888690D02*
X139375652Y-134793452D01*
X139375652Y-134793452D02*
X139375652Y-134698214D01*
X139375652Y-134460118D02*
X140042319Y-134222023D01*
X139375652Y-133983928D02*
X140042319Y-134222023D01*
X140042319Y-134222023D02*
X140280414Y-134317261D01*
X140280414Y-134317261D02*
X140328033Y-134364880D01*
X140328033Y-134364880D02*
X140375652Y-134460118D01*
X139947080Y-132269642D02*
X139994700Y-132317261D01*
X139994700Y-132317261D02*
X140042319Y-132460118D01*
X140042319Y-132460118D02*
X140042319Y-132555356D01*
X140042319Y-132555356D02*
X139994700Y-132698213D01*
X139994700Y-132698213D02*
X139899461Y-132793451D01*
X139899461Y-132793451D02*
X139804223Y-132841070D01*
X139804223Y-132841070D02*
X139613747Y-132888689D01*
X139613747Y-132888689D02*
X139470890Y-132888689D01*
X139470890Y-132888689D02*
X139280414Y-132841070D01*
X139280414Y-132841070D02*
X139185176Y-132793451D01*
X139185176Y-132793451D02*
X139089938Y-132698213D01*
X139089938Y-132698213D02*
X139042319Y-132555356D01*
X139042319Y-132555356D02*
X139042319Y-132460118D01*
X139042319Y-132460118D02*
X139089938Y-132317261D01*
X139089938Y-132317261D02*
X139137557Y-132269642D01*
X140042319Y-131841070D02*
X139042319Y-131841070D01*
X140042319Y-131412499D02*
X139518509Y-131412499D01*
X139518509Y-131412499D02*
X139423271Y-131460118D01*
X139423271Y-131460118D02*
X139375652Y-131555356D01*
X139375652Y-131555356D02*
X139375652Y-131698213D01*
X139375652Y-131698213D02*
X139423271Y-131793451D01*
X139423271Y-131793451D02*
X139470890Y-131841070D01*
X140042319Y-130507737D02*
X139518509Y-130507737D01*
X139518509Y-130507737D02*
X139423271Y-130555356D01*
X139423271Y-130555356D02*
X139375652Y-130650594D01*
X139375652Y-130650594D02*
X139375652Y-130841070D01*
X139375652Y-130841070D02*
X139423271Y-130936308D01*
X139994700Y-130507737D02*
X140042319Y-130602975D01*
X140042319Y-130602975D02*
X140042319Y-130841070D01*
X140042319Y-130841070D02*
X139994700Y-130936308D01*
X139994700Y-130936308D02*
X139899461Y-130983927D01*
X139899461Y-130983927D02*
X139804223Y-130983927D01*
X139804223Y-130983927D02*
X139708985Y-130936308D01*
X139708985Y-130936308D02*
X139661366Y-130841070D01*
X139661366Y-130841070D02*
X139661366Y-130602975D01*
X139661366Y-130602975D02*
X139613747Y-130507737D01*
X140042319Y-130031546D02*
X139375652Y-130031546D01*
X139566128Y-130031546D02*
X139470890Y-129983927D01*
X139470890Y-129983927D02*
X139423271Y-129936308D01*
X139423271Y-129936308D02*
X139375652Y-129841070D01*
X139375652Y-129841070D02*
X139375652Y-129745832D01*
X139375652Y-128983927D02*
X140185176Y-128983927D01*
X140185176Y-128983927D02*
X140280414Y-129031546D01*
X140280414Y-129031546D02*
X140328033Y-129079165D01*
X140328033Y-129079165D02*
X140375652Y-129174403D01*
X140375652Y-129174403D02*
X140375652Y-129317260D01*
X140375652Y-129317260D02*
X140328033Y-129412498D01*
X139994700Y-128983927D02*
X140042319Y-129079165D01*
X140042319Y-129079165D02*
X140042319Y-129269641D01*
X140042319Y-129269641D02*
X139994700Y-129364879D01*
X139994700Y-129364879D02*
X139947080Y-129412498D01*
X139947080Y-129412498D02*
X139851842Y-129460117D01*
X139851842Y-129460117D02*
X139566128Y-129460117D01*
X139566128Y-129460117D02*
X139470890Y-129412498D01*
X139470890Y-129412498D02*
X139423271Y-129364879D01*
X139423271Y-129364879D02*
X139375652Y-129269641D01*
X139375652Y-129269641D02*
X139375652Y-129079165D01*
X139375652Y-129079165D02*
X139423271Y-128983927D01*
X139994700Y-128126784D02*
X140042319Y-128222022D01*
X140042319Y-128222022D02*
X140042319Y-128412498D01*
X140042319Y-128412498D02*
X139994700Y-128507736D01*
X139994700Y-128507736D02*
X139899461Y-128555355D01*
X139899461Y-128555355D02*
X139518509Y-128555355D01*
X139518509Y-128555355D02*
X139423271Y-128507736D01*
X139423271Y-128507736D02*
X139375652Y-128412498D01*
X139375652Y-128412498D02*
X139375652Y-128222022D01*
X139375652Y-128222022D02*
X139423271Y-128126784D01*
X139423271Y-128126784D02*
X139518509Y-128079165D01*
X139518509Y-128079165D02*
X139613747Y-128079165D01*
X139613747Y-128079165D02*
X139708985Y-128555355D01*
X140042319Y-127650593D02*
X139375652Y-127650593D01*
X139566128Y-127650593D02*
X139470890Y-127602974D01*
X139470890Y-127602974D02*
X139423271Y-127555355D01*
X139423271Y-127555355D02*
X139375652Y-127460117D01*
X139375652Y-127460117D02*
X139375652Y-127364879D01*
X140042319Y-125745831D02*
X140042319Y-126317259D01*
X140042319Y-126031545D02*
X139042319Y-126031545D01*
X139042319Y-126031545D02*
X139185176Y-126126783D01*
X139185176Y-126126783D02*
X139280414Y-126222021D01*
X139280414Y-126222021D02*
X139328033Y-126317259D01*
X139756604Y-125364878D02*
X139756604Y-124888688D01*
X140042319Y-125460116D02*
X139042319Y-125126783D01*
X139042319Y-125126783D02*
X140042319Y-124793450D01*
X138525595Y-142467319D02*
X138525595Y-143276842D01*
X138525595Y-143276842D02*
X138573214Y-143372080D01*
X138573214Y-143372080D02*
X138620833Y-143419700D01*
X138620833Y-143419700D02*
X138716071Y-143467319D01*
X138716071Y-143467319D02*
X138906547Y-143467319D01*
X138906547Y-143467319D02*
X139001785Y-143419700D01*
X139001785Y-143419700D02*
X139049404Y-143372080D01*
X139049404Y-143372080D02*
X139097023Y-143276842D01*
X139097023Y-143276842D02*
X139097023Y-142467319D01*
X139525595Y-143419700D02*
X139668452Y-143467319D01*
X139668452Y-143467319D02*
X139906547Y-143467319D01*
X139906547Y-143467319D02*
X140001785Y-143419700D01*
X140001785Y-143419700D02*
X140049404Y-143372080D01*
X140049404Y-143372080D02*
X140097023Y-143276842D01*
X140097023Y-143276842D02*
X140097023Y-143181604D01*
X140097023Y-143181604D02*
X140049404Y-143086366D01*
X140049404Y-143086366D02*
X140001785Y-143038747D01*
X140001785Y-143038747D02*
X139906547Y-142991128D01*
X139906547Y-142991128D02*
X139716071Y-142943509D01*
X139716071Y-142943509D02*
X139620833Y-142895890D01*
X139620833Y-142895890D02*
X139573214Y-142848271D01*
X139573214Y-142848271D02*
X139525595Y-142753033D01*
X139525595Y-142753033D02*
X139525595Y-142657795D01*
X139525595Y-142657795D02*
X139573214Y-142562557D01*
X139573214Y-142562557D02*
X139620833Y-142514938D01*
X139620833Y-142514938D02*
X139716071Y-142467319D01*
X139716071Y-142467319D02*
X139954166Y-142467319D01*
X139954166Y-142467319D02*
X140097023Y-142514938D01*
X140858928Y-142943509D02*
X141001785Y-142991128D01*
X141001785Y-142991128D02*
X141049404Y-143038747D01*
X141049404Y-143038747D02*
X141097023Y-143133985D01*
X141097023Y-143133985D02*
X141097023Y-143276842D01*
X141097023Y-143276842D02*
X141049404Y-143372080D01*
X141049404Y-143372080D02*
X141001785Y-143419700D01*
X141001785Y-143419700D02*
X140906547Y-143467319D01*
X140906547Y-143467319D02*
X140525595Y-143467319D01*
X140525595Y-143467319D02*
X140525595Y-142467319D01*
X140525595Y-142467319D02*
X140858928Y-142467319D01*
X140858928Y-142467319D02*
X140954166Y-142514938D01*
X140954166Y-142514938D02*
X141001785Y-142562557D01*
X141001785Y-142562557D02*
X141049404Y-142657795D01*
X141049404Y-142657795D02*
X141049404Y-142753033D01*
X141049404Y-142753033D02*
X141001785Y-142848271D01*
X141001785Y-142848271D02*
X140954166Y-142895890D01*
X140954166Y-142895890D02*
X140858928Y-142943509D01*
X140858928Y-142943509D02*
X140525595Y-142943509D01*
X143318509Y-123460118D02*
X143366128Y-123317261D01*
X143366128Y-123317261D02*
X143413747Y-123269642D01*
X143413747Y-123269642D02*
X143508985Y-123222023D01*
X143508985Y-123222023D02*
X143651842Y-123222023D01*
X143651842Y-123222023D02*
X143747080Y-123269642D01*
X143747080Y-123269642D02*
X143794700Y-123317261D01*
X143794700Y-123317261D02*
X143842319Y-123412499D01*
X143842319Y-123412499D02*
X143842319Y-123793451D01*
X143842319Y-123793451D02*
X142842319Y-123793451D01*
X142842319Y-123793451D02*
X142842319Y-123460118D01*
X142842319Y-123460118D02*
X142889938Y-123364880D01*
X142889938Y-123364880D02*
X142937557Y-123317261D01*
X142937557Y-123317261D02*
X143032795Y-123269642D01*
X143032795Y-123269642D02*
X143128033Y-123269642D01*
X143128033Y-123269642D02*
X143223271Y-123317261D01*
X143223271Y-123317261D02*
X143270890Y-123364880D01*
X143270890Y-123364880D02*
X143318509Y-123460118D01*
X143318509Y-123460118D02*
X143318509Y-123793451D01*
X143461366Y-122793451D02*
X143461366Y-122031547D01*
X143889938Y-143574404D02*
X143842319Y-143669642D01*
X143842319Y-143669642D02*
X143842319Y-143812499D01*
X143842319Y-143812499D02*
X143889938Y-143955356D01*
X143889938Y-143955356D02*
X143985176Y-144050594D01*
X143985176Y-144050594D02*
X144080414Y-144098213D01*
X144080414Y-144098213D02*
X144270890Y-144145832D01*
X144270890Y-144145832D02*
X144413747Y-144145832D01*
X144413747Y-144145832D02*
X144604223Y-144098213D01*
X144604223Y-144098213D02*
X144699461Y-144050594D01*
X144699461Y-144050594D02*
X144794700Y-143955356D01*
X144794700Y-143955356D02*
X144842319Y-143812499D01*
X144842319Y-143812499D02*
X144842319Y-143717261D01*
X144842319Y-143717261D02*
X144794700Y-143574404D01*
X144794700Y-143574404D02*
X144747080Y-143526785D01*
X144747080Y-143526785D02*
X144413747Y-143526785D01*
X144413747Y-143526785D02*
X144413747Y-143717261D01*
X144842319Y-143098213D02*
X143842319Y-143098213D01*
X143842319Y-143098213D02*
X144842319Y-142526785D01*
X144842319Y-142526785D02*
X143842319Y-142526785D01*
X144842319Y-142050594D02*
X143842319Y-142050594D01*
X143842319Y-142050594D02*
X143842319Y-141812499D01*
X143842319Y-141812499D02*
X143889938Y-141669642D01*
X143889938Y-141669642D02*
X143985176Y-141574404D01*
X143985176Y-141574404D02*
X144080414Y-141526785D01*
X144080414Y-141526785D02*
X144270890Y-141479166D01*
X144270890Y-141479166D02*
X144413747Y-141479166D01*
X144413747Y-141479166D02*
X144604223Y-141526785D01*
X144604223Y-141526785D02*
X144699461Y-141574404D01*
X144699461Y-141574404D02*
X144794700Y-141669642D01*
X144794700Y-141669642D02*
X144842319Y-141812499D01*
X144842319Y-141812499D02*
X144842319Y-142050594D01*
X146342319Y-125164880D02*
X146342319Y-124974404D01*
X146342319Y-124974404D02*
X146389938Y-124879166D01*
X146389938Y-124879166D02*
X146485176Y-124783928D01*
X146485176Y-124783928D02*
X146675652Y-124736309D01*
X146675652Y-124736309D02*
X147008985Y-124736309D01*
X147008985Y-124736309D02*
X147199461Y-124783928D01*
X147199461Y-124783928D02*
X147294700Y-124879166D01*
X147294700Y-124879166D02*
X147342319Y-124974404D01*
X147342319Y-124974404D02*
X147342319Y-125164880D01*
X147342319Y-125164880D02*
X147294700Y-125260118D01*
X147294700Y-125260118D02*
X147199461Y-125355356D01*
X147199461Y-125355356D02*
X147008985Y-125402975D01*
X147008985Y-125402975D02*
X146675652Y-125402975D01*
X146675652Y-125402975D02*
X146485176Y-125355356D01*
X146485176Y-125355356D02*
X146389938Y-125260118D01*
X146389938Y-125260118D02*
X146342319Y-125164880D01*
X146675652Y-123879166D02*
X147342319Y-123879166D01*
X146675652Y-124307737D02*
X147199461Y-124307737D01*
X147199461Y-124307737D02*
X147294700Y-124260118D01*
X147294700Y-124260118D02*
X147342319Y-124164880D01*
X147342319Y-124164880D02*
X147342319Y-124022023D01*
X147342319Y-124022023D02*
X147294700Y-123926785D01*
X147294700Y-123926785D02*
X147247080Y-123879166D01*
X146675652Y-123545832D02*
X146675652Y-123164880D01*
X146342319Y-123402975D02*
X147199461Y-123402975D01*
X147199461Y-123402975D02*
X147294700Y-123355356D01*
X147294700Y-123355356D02*
X147342319Y-123260118D01*
X147342319Y-123260118D02*
X147342319Y-123164880D01*
X146961366Y-122831546D02*
X146961366Y-122069642D01*
X147561366Y-140993451D02*
X147561366Y-140231547D01*
X122190476Y-69954819D02*
X122190476Y-68954819D01*
X122190476Y-68954819D02*
X122523809Y-69669104D01*
X122523809Y-69669104D02*
X122857142Y-68954819D01*
X122857142Y-68954819D02*
X122857142Y-69954819D01*
X123285714Y-69050057D02*
X123333333Y-69002438D01*
X123333333Y-69002438D02*
X123428571Y-68954819D01*
X123428571Y-68954819D02*
X123666666Y-68954819D01*
X123666666Y-68954819D02*
X123761904Y-69002438D01*
X123761904Y-69002438D02*
X123809523Y-69050057D01*
X123809523Y-69050057D02*
X123857142Y-69145295D01*
X123857142Y-69145295D02*
X123857142Y-69240533D01*
X123857142Y-69240533D02*
X123809523Y-69383390D01*
X123809523Y-69383390D02*
X123238095Y-69954819D01*
X123238095Y-69954819D02*
X123857142Y-69954819D01*
X122666666Y-129954819D02*
X122666666Y-128954819D01*
X122666666Y-128954819D02*
X122999999Y-129669104D01*
X122999999Y-129669104D02*
X123333332Y-128954819D01*
X123333332Y-128954819D02*
X123333332Y-129954819D01*
X123952380Y-129954819D02*
X123857142Y-129907200D01*
X123857142Y-129907200D02*
X123809523Y-129859580D01*
X123809523Y-129859580D02*
X123761904Y-129764342D01*
X123761904Y-129764342D02*
X123761904Y-129478628D01*
X123761904Y-129478628D02*
X123809523Y-129383390D01*
X123809523Y-129383390D02*
X123857142Y-129335771D01*
X123857142Y-129335771D02*
X123952380Y-129288152D01*
X123952380Y-129288152D02*
X124095237Y-129288152D01*
X124095237Y-129288152D02*
X124190475Y-129335771D01*
X124190475Y-129335771D02*
X124238094Y-129383390D01*
X124238094Y-129383390D02*
X124285713Y-129478628D01*
X124285713Y-129478628D02*
X124285713Y-129764342D01*
X124285713Y-129764342D02*
X124238094Y-129859580D01*
X124238094Y-129859580D02*
X124190475Y-129907200D01*
X124190475Y-129907200D02*
X124095237Y-129954819D01*
X124095237Y-129954819D02*
X123952380Y-129954819D01*
X124571428Y-129288152D02*
X124952380Y-129288152D01*
X124714285Y-128954819D02*
X124714285Y-129811961D01*
X124714285Y-129811961D02*
X124761904Y-129907200D01*
X124761904Y-129907200D02*
X124857142Y-129954819D01*
X124857142Y-129954819D02*
X124952380Y-129954819D01*
X125428571Y-129954819D02*
X125333333Y-129907200D01*
X125333333Y-129907200D02*
X125285714Y-129859580D01*
X125285714Y-129859580D02*
X125238095Y-129764342D01*
X125238095Y-129764342D02*
X125238095Y-129478628D01*
X125238095Y-129478628D02*
X125285714Y-129383390D01*
X125285714Y-129383390D02*
X125333333Y-129335771D01*
X125333333Y-129335771D02*
X125428571Y-129288152D01*
X125428571Y-129288152D02*
X125571428Y-129288152D01*
X125571428Y-129288152D02*
X125666666Y-129335771D01*
X125666666Y-129335771D02*
X125714285Y-129383390D01*
X125714285Y-129383390D02*
X125761904Y-129478628D01*
X125761904Y-129478628D02*
X125761904Y-129764342D01*
X125761904Y-129764342D02*
X125714285Y-129859580D01*
X125714285Y-129859580D02*
X125666666Y-129907200D01*
X125666666Y-129907200D02*
X125571428Y-129954819D01*
X125571428Y-129954819D02*
X125428571Y-129954819D01*
X126190476Y-129954819D02*
X126190476Y-129288152D01*
X126190476Y-129478628D02*
X126238095Y-129383390D01*
X126238095Y-129383390D02*
X126285714Y-129335771D01*
X126285714Y-129335771D02*
X126380952Y-129288152D01*
X126380952Y-129288152D02*
X126476190Y-129288152D01*
%TO.C,SW1*%
D12*
X153620000Y-80620000D02*
X155000000Y-80620000D01*
X153620000Y-82000000D02*
X153620000Y-80620000D01*
X153620000Y-83270000D02*
X153620000Y-88460000D01*
X153620000Y-83270000D02*
X156380000Y-83270000D01*
X153620000Y-88460000D02*
X156380000Y-88460000D01*
X156380000Y-83270000D02*
X156380000Y-88460000D01*
%TO.C,A1*%
X129390000Y-65850000D02*
X128910000Y-65850000D01*
X129390000Y-65850000D02*
X129390000Y-66270000D01*
X129390000Y-68390000D02*
X129390000Y-68810000D01*
X129390000Y-70930000D02*
X129390000Y-71350000D01*
X129390000Y-73470000D02*
X129390000Y-73890000D01*
X129390000Y-76010000D02*
X129390000Y-76430000D01*
X129390000Y-78550000D02*
X129390000Y-78970000D01*
X129390000Y-81090000D02*
X129390000Y-81510000D01*
X129390000Y-83630000D02*
X129390000Y-84050000D01*
X129390000Y-86170000D02*
X129390000Y-86590000D01*
X129390000Y-88710000D02*
X129390000Y-89130000D01*
X129390000Y-91250000D02*
X129390000Y-91670000D01*
X129390000Y-93790000D02*
X129390000Y-94210000D01*
X129390000Y-96330000D02*
X129390000Y-96750000D01*
X129390000Y-98870000D02*
X129390000Y-99290000D01*
X129390000Y-101410000D02*
X129390000Y-101830000D01*
X129390000Y-103950000D02*
X129390000Y-104370000D01*
X129390000Y-106490000D02*
X129390000Y-106910000D01*
X129390000Y-109030000D02*
X129390000Y-109450000D01*
X129390000Y-111570000D02*
X129390000Y-111990000D01*
X129420324Y-63730000D02*
X128910000Y-63730000D01*
X130000000Y-63310000D02*
X132490000Y-63310000D01*
X130000000Y-114530000D02*
X133837939Y-114530000D01*
X132490000Y-63310000D02*
X133837940Y-63310000D01*
X134762061Y-63310000D02*
X135765000Y-63310000D01*
X135765000Y-63310000D02*
X144235000Y-63310000D01*
X136100000Y-63310000D02*
X136100000Y-64226000D01*
X136100000Y-66614000D02*
X136100000Y-67830000D01*
X136100000Y-67830000D02*
X136396090Y-67830000D01*
X136400000Y-114530000D02*
X134762061Y-114530000D01*
X138520000Y-114530000D02*
X138940000Y-114530000D01*
X138753910Y-67830000D02*
X141246090Y-67830000D01*
X141060000Y-114530000D02*
X141480000Y-114530000D01*
X143603910Y-67830000D02*
X143900000Y-67830000D01*
X143900000Y-63310000D02*
X143900000Y-64226000D01*
X143900000Y-66614000D02*
X143900000Y-67830000D01*
X144235000Y-63310000D02*
X145237939Y-63310000D01*
X145237939Y-114530000D02*
X143600000Y-114530000D01*
X146162061Y-63310000D02*
X147510000Y-63310000D01*
X146162061Y-114530000D02*
X150000000Y-114530000D01*
X150000000Y-63310000D02*
X147510000Y-63310000D01*
X150610000Y-65850000D02*
X150610000Y-66270000D01*
X150610000Y-68390000D02*
X150610000Y-68810000D01*
X150610000Y-70930000D02*
X150610000Y-71350000D01*
X150610000Y-73470000D02*
X150610000Y-73890000D01*
X150610000Y-76010000D02*
X150610000Y-76430000D01*
X150610000Y-78550000D02*
X150610000Y-78970000D01*
X150610000Y-81090000D02*
X150610000Y-81510000D01*
X150610000Y-83630000D02*
X150610000Y-84050000D01*
X150610000Y-86170000D02*
X150610000Y-86590000D01*
X150610000Y-88710000D02*
X150610000Y-89130000D01*
X150610000Y-91250000D02*
X150610000Y-91670000D01*
X150610000Y-93790000D02*
X150610000Y-94210000D01*
X150610000Y-96330000D02*
X150610000Y-96750000D01*
X150610000Y-98870000D02*
X150610000Y-99290000D01*
X150610000Y-101410000D02*
X150610000Y-101830000D01*
X150610000Y-103950000D02*
X150610000Y-104370000D01*
X150610000Y-106490000D02*
X150610000Y-106910000D01*
X150610000Y-109030000D02*
X150610000Y-109450000D01*
X150610000Y-111570000D02*
X150610000Y-111990000D01*
X129420324Y-63730000D02*
G75*
G02*
X130000000Y-63310000I579692J-190051D01*
G01*
X130000000Y-114530000D02*
G75*
G02*
X129420324Y-114109937I1J610002D01*
G01*
X150000000Y-63310000D02*
G75*
G02*
X150579676Y-63730063I0J-610000D01*
G01*
X150579676Y-114109937D02*
G75*
G02*
X150000000Y-114529948I-579476J189737D01*
G01*
%TO.C,J5*%
D11*
X130687500Y-116212500D02*
X133187500Y-116212500D01*
X130687500Y-118312500D02*
X130687500Y-116212500D01*
X130687500Y-144612500D02*
X130687500Y-118312500D01*
X133187500Y-116212500D02*
X133187500Y-118512500D01*
X133187500Y-118512500D02*
X146087500Y-118512500D01*
X137887500Y-141712500D02*
X141687500Y-141712500D01*
X137887500Y-144212500D02*
X137887500Y-141712500D01*
X141687500Y-141712500D02*
X141687500Y-144212500D01*
X141687500Y-144212500D02*
X137987500Y-144212500D01*
X146087500Y-116212500D02*
X146387500Y-116212500D01*
X146087500Y-118312500D02*
X146087500Y-116212500D01*
X146087500Y-118512500D02*
X146087500Y-118212500D01*
X146387500Y-116212500D02*
X148487500Y-116212500D01*
X148487500Y-116212500D02*
X148487500Y-144612500D01*
X148487500Y-144612500D02*
X130687500Y-144612500D01*
%TO.C,J4*%
D12*
X122040000Y-121940000D02*
X122040000Y-128060000D01*
X122040000Y-128060000D02*
X126760000Y-128060000D01*
X122650000Y-122550000D02*
X122650000Y-127450000D01*
X122650000Y-124900000D02*
X123150000Y-124900000D01*
X122650000Y-125000000D02*
X123150000Y-125000000D01*
X122650000Y-127450000D02*
X126150000Y-127450000D01*
X123150000Y-124900000D02*
X123150000Y-125100000D01*
X123150000Y-125100000D02*
X122650000Y-125100000D01*
X124150000Y-121940000D02*
X124150000Y-122550000D01*
X124150000Y-128060000D02*
X124150000Y-127450000D01*
X125450000Y-121940000D02*
X125450000Y-122550000D01*
X125450000Y-128060000D02*
X125450000Y-127450000D01*
X126150000Y-122550000D02*
X122650000Y-122550000D01*
X126150000Y-124500000D02*
X126150000Y-122550000D01*
X126150000Y-125500000D02*
X126760000Y-125500000D01*
X126150000Y-127450000D02*
X126150000Y-125500000D01*
X126760000Y-121940000D02*
X122040000Y-121940000D01*
X126760000Y-123700000D02*
X126960000Y-123700000D01*
X126760000Y-124500000D02*
X126150000Y-124500000D01*
X126760000Y-128060000D02*
X126760000Y-121940000D01*
X126860000Y-123700000D02*
X126860000Y-123400000D01*
X126960000Y-123400000D02*
X126760000Y-123400000D01*
X126960000Y-123700000D02*
X126960000Y-123400000D01*
X127060000Y-121640000D02*
X125810000Y-121640000D01*
X127060000Y-122890000D02*
X127060000Y-121640000D01*
%TD*%
M02*
